<?xml version="1.0" encoding="UTF-8" standalone="no"?>
<!-- Created with Inkscape (http://www.inkscape.org/) -->

<svg
   xmlns:dc="http://purl.org/dc/elements/1.1/"
   xmlns:cc="http://creativecommons.org/ns#"
   xmlns:rdf="http://www.w3.org/1999/02/22-rdf-syntax-ns#"
   xmlns:svg="http://www.w3.org/2000/svg"
   xmlns="http://www.w3.org/2000/svg"
   xmlns:sodipodi="http://sodipodi.sourceforge.net/DTD/sodipodi-0.dtd"
   xmlns:inkscape="http://www.inkscape.org/namespaces/inkscape"
   width="744.09448819"
   height="1052.3622047"
   id="svg2"
   version="1.1"
   inkscape:version="0.48.5 r10040"
   sodipodi:docname="vectors.svg">
  <defs
     id="defs4" />
  <sodipodi:namedview
     id="base"
     pagecolor="#ffffff"
     bordercolor="#666666"
     borderopacity="1.0"
     inkscape:pageopacity="0.0"
     inkscape:pageshadow="2"
     inkscape:zoom="0.7"
     inkscape:cx="494.4338"
     inkscape:cy="73.324773"
     inkscape:document-units="px"
     inkscape:current-layer="layer1"
     showgrid="false"
     inkscape:window-width="1366"
     inkscape:window-height="746"
     inkscape:window-x="0"
     inkscape:window-y="0"
     inkscape:window-maximized="1" />
  <metadata
     id="metadata7">
    <rdf:RDF>
      <cc:Work
         rdf:about="">
        <dc:format>image/svg+xml</dc:format>
        <dc:type
           rdf:resource="http://purl.org/dc/dcmitype/StillImage" />
        <dc:title />
      </cc:Work>
    </rdf:RDF>
  </metadata>
  <g
     inkscape:label="Layer 1"
     inkscape:groupmode="layer"
     id="layer1">
    <rect
       y="1296.34"
       x="-567.00299"
       height="242.93422"
       width="512.3902"
       id="rect3951"
       style="fill:#ff0000"
       inkscape:export-filename="/home/turupawn/Projects/Fighter/assets/misc/match_intro/4.png"
       inkscape:export-xdpi="90"
       inkscape:export-ydpi="90" />
    <rect
       style="fill:#ff0000"
       id="rect3949"
       width="512.3902"
       height="242.93422"
       x="-575.32544"
       y="974.10889"
       inkscape:export-filename="/home/turupawn/Projects/Fighter/assets/misc/match_intro/3.png"
       inkscape:export-xdpi="90"
       inkscape:export-ydpi="90" />
    <rect
       y="646.48163"
       x="-575.32544"
       height="242.93422"
       width="512.3902"
       id="rect3947"
       style="fill:#ff0000"
       inkscape:export-filename="/home/turupawn/Projects/Fighter/assets/misc/match_intro/2.png"
       inkscape:export-xdpi="90"
       inkscape:export-ydpi="90" />
    <rect
       style="fill:#ff0000"
       id="rect3945"
       width="512.3902"
       height="242.93422"
       x="-575.32544"
       y="396.59152"
       inkscape:export-filename="/home/turupawn/Projects/Fighter/assets/misc/match_intro/1.png"
       inkscape:export-xdpi="90"
       inkscape:export-ydpi="90" />
    <rect
       style="fill:#ff0000;fill-opacity:1"
       id="rect3903"
       width="496.59576"
       height="357.0632"
       x="68.384537"
       y="810.93085"
       inkscape:export-filename="/home/turupawn/Projects/Fighter/assets/misc/ko/1.png"
       inkscape:export-xdpi="90"
       inkscape:export-ydpi="90" />
    <rect
       style="fill:#ff0000;fill-opacity:1;stroke:none"
       id="rect2985"
       width="50"
       height="50"
       x="-909.28571"
       y="278.43362"
       inkscape:export-filename="8.png"
       inkscape:export-xdpi="90"
       inkscape:export-ydpi="90" />
    <path
       style="fill:#000000;fill-opacity:1;stroke:none"
       d="m -882.75154,283.69759 c -2.23121,0.003 -4.13016,1.56276 -5.20583,3.41797 -2.01935,1.62455 -3.62836,3.68107 -5.56658,5.39696 -2.08385,2.17015 -3.83025,4.64214 -5.59189,7.07375 -1.50257,2.1803 -0.98982,5.43127 1.22843,6.92753 2.13131,1.68815 5.49003,1.2026 7.06991,-1.01053 0.63265,-0.63329 2.08111,-3.3513 1.71893,-1.07295 0.009,4.6553 -0.0252,9.31307 0.0663,13.96688 0.0868,2.71738 2.61209,4.98388 5.32136,4.76061 2.6756,-0.0154 4.90493,-2.43615 4.86426,-5.08364 0.048,-3.52187 0.0244,-7.04438 0.0495,-10.56648 1.24477,1.7346 3.07699,3.44731 5.38116,3.21324 3.17053,-0.14544 5.71138,-3.66654 4.51668,-6.69445 -0.8028,-2.12773 -2.75979,-3.52432 -3.74535,-5.55947 -1.88768,-3.01052 -2.95516,-6.4347 -4.55789,-9.58037 -0.11234,-0.7134 -0.82908,-2.86613 -1.9101,-3.72721 -1.12787,-0.67098 -2.25096,-1.52578 -3.63884,-1.46184 z"
       id="path2987"
       inkscape:connector-curvature="0" />
    <rect
       y="-452.71933"
       x="860"
       height="50"
       width="50"
       id="rect3024"
       style="fill:#ff0000;fill-opacity:1;stroke:none"
       inkscape:export-filename="2.png"
       inkscape:export-xdpi="90"
       inkscape:export-ydpi="90"
       transform="scale(-1,-1)" />
    <path
       inkscape:connector-curvature="0"
       id="path3026"
       d="m -886.53412,447.45535 c 2.23121,-0.003 4.13016,-1.56276 5.20583,-3.41797 2.01935,-1.62455 3.62836,-3.68107 5.56658,-5.39696 2.08385,-2.17015 3.83025,-4.64214 5.59189,-7.07375 1.50257,-2.1803 0.98982,-5.43127 -1.22843,-6.92753 -2.13131,-1.68815 -5.49003,-1.2026 -7.06991,1.01053 -0.63265,0.63329 -2.08111,3.3513 -1.71893,1.07295 -0.009,-4.6553 0.0252,-9.31307 -0.0663,-13.96688 -0.0868,-2.71738 -2.61209,-4.98388 -5.32136,-4.76061 -2.6756,0.0154 -4.90493,2.43615 -4.86426,5.08364 -0.048,3.52187 -0.0244,7.04438 -0.0495,10.56648 -1.24477,-1.7346 -3.07699,-3.44731 -5.38116,-3.21324 -3.17053,0.14544 -5.71138,3.66654 -4.51668,6.69445 0.8028,2.12773 2.75979,3.52432 3.74535,5.55947 1.88768,3.01052 2.95516,6.4347 4.55789,9.58037 0.11234,0.7134 0.82908,2.86613 1.9101,3.72721 1.12787,0.67098 2.25096,1.52578 3.63884,1.46184 z"
       style="fill:#000000;fill-opacity:1;stroke:none"
       inkscape:export-filename="2.png"
       inkscape:export-xdpi="90"
       inkscape:export-ydpi="90" />
    <rect
       style="fill:#ff0000;fill-opacity:1;stroke:none"
       id="rect3028"
       width="50"
       height="50"
       x="-378.43362"
       y="-970.35718"
       inkscape:export-filename="4.png"
       inkscape:export-xdpi="90"
       inkscape:export-ydpi="90"
       transform="matrix(0,-1,1,0,0,0)" />
    <path
       style="fill:#000000;fill-opacity:1;stroke:none"
       d="m -965.09318,351.89944 c 0.003,2.23121 1.56276,4.13016 3.41797,5.20583 1.62455,2.01935 3.68107,3.62836 5.39696,5.56658 2.17015,2.08385 4.64214,3.83025 7.07375,5.59189 2.1803,1.50257 5.43127,0.98982 6.92753,-1.22843 1.68815,-2.13131 1.2026,-5.49003 -1.01053,-7.06991 -0.63329,-0.63265 -3.3513,-2.08111 -1.07295,-1.71893 4.6553,-0.009 9.31307,0.0252 13.96688,-0.0663 2.71738,-0.0868 4.98388,-2.61209 4.76061,-5.32136 -0.0154,-2.6756 -2.43615,-4.90493 -5.08364,-4.86426 -3.52187,-0.048 -7.04438,-0.0244 -10.56648,-0.0495 1.7346,-1.24477 3.44731,-3.07699 3.21324,-5.38116 -0.14544,-3.17053 -3.66654,-5.71138 -6.69445,-4.51668 -2.12773,0.8028 -3.52432,2.75979 -5.55947,3.74535 -3.01052,1.88768 -6.4347,2.95516 -9.58037,4.55789 -0.7134,0.11234 -2.86613,0.82908 -3.72721,1.9101 -0.67098,1.12787 -1.52578,2.25096 -1.46184,3.63884 z"
       id="path3030"
       inkscape:connector-curvature="0"
       inkscape:export-filename="4.png"
       inkscape:export-xdpi="90"
       inkscape:export-ydpi="90" />
    <rect
       y="802.85712"
       x="331.29074"
       height="50"
       width="50"
       id="rect3032"
       style="fill:#ff0000;fill-opacity:1;stroke:none"
       inkscape:export-filename="6.png"
       inkscape:export-xdpi="90"
       inkscape:export-ydpi="90"
       transform="matrix(0,1,-1,0,0,0)" />
    <path
       inkscape:connector-curvature="0"
       id="path3034"
       d="m -808.12111,357.82491 c -0.003,-2.23121 -1.56276,-4.13016 -3.41797,-5.20583 -1.62455,-2.01935 -3.68107,-3.62836 -5.39696,-5.56658 -2.17015,-2.08385 -4.64214,-3.83025 -7.07375,-5.59189 -2.1803,-1.50257 -5.43127,-0.98982 -6.92753,1.22843 -1.68815,2.13131 -1.2026,5.49003 1.01053,7.06991 0.63329,0.63265 3.3513,2.08111 1.07295,1.71893 -4.6553,0.009 -9.31307,-0.0252 -13.96688,0.0663 -2.71738,0.0868 -4.98388,2.61209 -4.76061,5.32136 0.0154,2.6756 2.43615,4.90493 5.08364,4.86426 3.52187,0.048 7.04438,0.0244 10.56648,0.0495 -1.7346,1.24477 -3.44731,3.07699 -3.21324,5.38116 0.14544,3.17053 3.66654,5.71138 6.69445,4.51668 2.12773,-0.8028 3.52432,-2.75979 5.55947,-3.74535 3.01052,-1.88768 6.4347,-2.95516 9.58037,-4.55789 0.7134,-0.11234 2.86613,-0.82908 3.72721,-1.9101 0.67098,-1.12787 1.52578,-2.25096 1.46184,-3.63884 z"
       style="fill:#000000;fill-opacity:1;stroke:none"
       inkscape:export-filename="6.png"
       inkscape:export-xdpi="90"
       inkscape:export-ydpi="90" />
    <rect
       transform="matrix(0,1,-1,0,0,0)"
       inkscape:export-ydpi="90"
       inkscape:export-xdpi="90"
       inkscape:export-filename="9.png"
       style="fill:#ff0000;fill-opacity:1;stroke:none"
       id="rect3036"
       width="50"
       height="50"
       x="277.36218"
       y="802.85712" />
    <path
       inkscape:export-ydpi="90"
       inkscape:export-xdpi="90"
       inkscape:export-filename="6.png"
       style="fill:#000000;fill-opacity:1;stroke:none"
       d="m -812.81684,289.49152 c -1.57982,-1.57558 -4.0255,-1.81543 -6.09795,-1.26421 -2.57662,-0.27916 -5.16854,0.0373 -7.75239,-0.11994 -3.00803,0.061 -5.99088,0.5741 -8.95596,1.04784 -2.60418,0.47922 -4.5404,3.14058 -4.02987,5.76713 0.31336,2.70077 3.03167,4.7324 5.71373,4.28463 0.89516,-4.5e-4 3.8413,-0.89816 1.97416,0.45678 -3.28543,3.29815 -6.60315,6.56751 -9.82919,9.92295 -1.86011,1.98286 -1.67711,5.37116 0.39651,7.12903 1.90282,1.88105 5.19092,1.74569 7.03422,-0.15512 2.52428,-2.4564 4.99839,-4.96388 7.50663,-7.43663 -0.34636,2.10673 -0.26185,4.61338 1.53296,6.07716 2.34474,2.13906 6.63119,1.44592 7.92746,-1.53992 0.93687,-2.0722 0.54061,-4.44353 1.28278,-6.5795 0.79397,-3.46355 2.4604,-6.63963 3.55143,-9.99726 0.42501,-0.58389 1.44041,-2.61291 1.28489,-3.98618 -0.32307,-1.27198 -0.51278,-2.67056 -1.53937,-3.60672 z"
       id="path3038"
       inkscape:connector-curvature="0" />
    <rect
       y="802.85712"
       x="411.29077"
       height="50"
       width="50"
       id="rect3040"
       style="fill:#ff0000;fill-opacity:1;stroke:none"
       inkscape:export-filename="3.png"
       inkscape:export-xdpi="90"
       inkscape:export-ydpi="90"
       transform="matrix(0,1,-1,0,0,0)" />
    <path
       inkscape:connector-curvature="0"
       id="path3042"
       d="m -814.98647,451.33104 c 1.57558,-1.57983 1.81542,-4.02551 1.2642,-6.09795 0.27917,-2.57663 -0.0373,-5.16855 0.11994,-7.75239 -0.061,-3.00804 -0.57409,-5.99089 -1.04783,-8.95596 -0.47923,-2.60419 -3.14058,-4.5404 -5.76713,-4.02988 -2.70077,0.31337 -4.73241,3.03167 -4.28463,5.71374 4.5e-4,0.89515 0.89816,3.84129 -0.45678,1.97416 -3.29816,-3.28543 -6.56752,-6.60316 -9.92296,-9.8292 -1.98285,-1.8601 -5.37116,-1.67711 -7.12903,0.39651 -1.88104,1.90283 -1.74569,5.19093 0.15513,7.03423 2.4564,2.52428 4.96387,4.99838 7.43663,7.50663 -2.10674,-0.34636 -4.61338,-0.26186 -6.07716,1.53295 -2.13906,2.34475 -1.44592,6.63119 1.53991,7.92747 2.0722,0.93686 4.44354,0.5406 6.57951,1.28277 3.46355,0.79397 6.63963,2.46041 9.99725,3.55143 0.58389,0.42502 2.61291,1.44042 3.98618,1.28489 1.27198,-0.32307 2.67056,-0.51278 3.60673,-1.53937 z"
       style="fill:#000000;fill-opacity:1;stroke:none"
       inkscape:export-filename="6.png"
       inkscape:export-xdpi="90"
       inkscape:export-ydpi="90" />
    <rect
       transform="matrix(0,1,-1,0,0,0)"
       inkscape:export-ydpi="90"
       inkscape:export-xdpi="90"
       inkscape:export-filename="1.png"
       style="fill:#ff0000;fill-opacity:1;stroke:none"
       id="rect3044"
       width="50"
       height="50"
       x="411.29077"
       y="923.57141" />
    <path
       inkscape:export-ydpi="90"
       inkscape:export-xdpi="90"
       inkscape:export-filename="6.png"
       style="fill:#000000;fill-opacity:1;stroke:none"
       d="m -963.61171,449.1614 c 1.57982,1.57558 4.0255,1.81543 6.09795,1.26421 2.57662,0.27917 5.16854,-0.0373 7.75239,0.11994 3.00803,-0.061 5.99088,-0.57409 8.95596,-1.04783 2.60418,-0.47923 4.5404,-3.14058 4.02987,-5.76714 -0.31336,-2.70077 -3.03167,-4.7324 -5.71373,-4.28463 -0.89516,4.5e-4 -3.8413,0.89816 -1.97416,-0.45677 3.28543,-3.29816 6.60315,-6.56752 9.82919,-9.92296 1.86011,-1.98286 1.67711,-5.37116 -0.39651,-7.12903 -1.90282,-1.88105 -5.19092,-1.74569 -7.03422,0.15512 -2.52428,2.4564 -4.99839,4.96388 -7.50663,7.43663 0.34636,-2.10673 0.26185,-4.61337 -1.53296,-6.07716 -2.34474,-2.13906 -6.63119,-1.44592 -7.92746,1.53992 -0.93687,2.0722 -0.54061,4.44354 -1.28278,6.5795 -0.79397,3.46355 -2.4604,6.63963 -3.55143,9.99726 -0.42501,0.58389 -1.44041,2.61291 -1.28489,3.98618 0.32307,1.27198 0.51278,2.67056 1.53937,3.60673 z"
       id="path3046"
       inkscape:connector-curvature="0" />
    <rect
       y="923.57141"
       x="267.36218"
       height="50"
       width="50"
       id="rect3048"
       style="fill:#ff0000;fill-opacity:1;stroke:none"
       inkscape:export-filename="7.png"
       inkscape:export-xdpi="90"
       inkscape:export-ydpi="90"
       transform="matrix(0,1,-1,0,0,0)" />
    <path
       inkscape:connector-curvature="0"
       id="path3050"
       d="m -961.44208,277.32188 c -1.57558,1.57983 -1.81542,4.02551 -1.2642,6.09795 -0.27917,2.57663 0.0373,5.16855 -0.11994,7.7524 0.061,3.00803 0.57409,5.99088 1.04783,8.95596 0.47923,2.60418 3.14058,4.54039 5.76713,4.02987 2.70077,-0.31336 4.73241,-3.03167 4.28463,-5.71374 -4.5e-4,-0.89515 -0.89816,-3.84129 0.45678,-1.97415 3.29816,3.28543 6.56752,6.60315 9.92296,9.82919 1.98285,1.8601 5.37116,1.67711 7.12903,-0.39651 1.88104,-1.90282 1.74569,-5.19093 -0.15513,-7.03423 -2.4564,-2.52428 -4.96387,-4.99838 -7.43663,-7.50663 2.10674,0.34636 4.61338,0.26186 6.07716,-1.53295 2.13906,-2.34474 1.44592,-6.63119 -1.53991,-7.92747 -2.0722,-0.93686 -4.44354,-0.5406 -6.57951,-1.28277 -3.46355,-0.79397 -6.63963,-2.46041 -9.99725,-3.55143 -0.58389,-0.42502 -2.61291,-1.44041 -3.98618,-1.28489 -1.27198,0.32307 -2.67056,0.51278 -3.60673,1.53937 z"
       style="fill:#000000;fill-opacity:1;stroke:none"
       inkscape:export-filename="6.png"
       inkscape:export-xdpi="90"
       inkscape:export-ydpi="90" />
    <rect
       transform="scale(-1,-1)"
       inkscape:export-ydpi="90"
       inkscape:export-xdpi="90"
       inkscape:export-filename="5.png"
       style="fill:#ff0000;fill-opacity:1;stroke:none"
       id="rect3052"
       width="50"
       height="50"
       x="860"
       y="-393.07648" />
    <path
       style="fill:#000000;fill-opacity:1;stroke:none"
       d="m -890.9375,361.78125 c -1.1297,0.0576 -2.35666,0.14429 -3.25078,0.92626 -0.48993,0.35569 -0.83197,0.90598 -1.09297,1.44874 -0.31275,0.80839 -0.22507,1.73068 0.15625,2.5 -0.39565,1.25483 0.36244,2.61882 1.5035,3.17884 0.90571,0.52938 1.82268,1.05258 2.75105,1.53245 1.23591,1.03026 2.5636,1.9867 4.03686,2.64106 1.39416,0.57299 3.13913,0.18405 4.07477,-1.02477 1.17933,-1.43248 1.78168,-3.38889 1.41026,-5.22509 -0.13165,-0.51185 0.11471,-1.07927 -0.0426,-1.62061 -0.23678,-1.37214 -1.3815,-2.37687 -2.5631,-2.98795 -1.77466,-0.77885 -3.71343,-1.10636 -5.62929,-1.31286 -0.45015,-0.0387 -0.90213,-0.0596 -1.35391,-0.0561 z"
       id="path3056"
       inkscape:connector-curvature="0"
       inkscape:export-filename="5.png"
       inkscape:export-xdpi="90"
       inkscape:export-ydpi="90" />
    <rect
       transform="scale(-1,-1)"
       inkscape:export-ydpi="90"
       inkscape:export-xdpi="90"
       inkscape:export-filename="b.png"
       style="fill:#ff0000;fill-opacity:1;stroke:none"
       id="rect3060"
       width="50"
       height="50"
       x="860"
       y="-568.8869" />
    <rect
       transform="matrix(0,1,-1,0,0,0)"
       inkscape:export-ydpi="90"
       inkscape:export-xdpi="90"
       inkscape:export-filename="c.png"
       style="fill:#ff0000;fill-opacity:1;stroke:none"
       id="rect3064"
       width="50"
       height="50"
       x="527.45831"
       y="802.85712" />
    <rect
       y="923.57141"
       x="527.45831"
       height="50"
       width="50"
       id="rect3068"
       style="fill:#ff0000;fill-opacity:1;stroke:none"
       inkscape:export-filename="a.png"
       inkscape:export-xdpi="90"
       inkscape:export-ydpi="90"
       transform="matrix(0,1,-1,0,0,0)" />
    <rect
       y="-642.12299"
       x="860"
       height="50"
       width="50"
       id="rect3072"
       style="fill:#ff0000;fill-opacity:1;stroke:none"
       inkscape:export-filename="2.png"
       inkscape:export-xdpi="90"
       inkscape:export-ydpi="90"
       transform="scale(-1,-1)" />
    <rect
       y="802.85712"
       x="600.6944"
       height="50"
       width="50"
       id="rect3076"
       style="fill:#ff0000;fill-opacity:1;stroke:none"
       inkscape:export-filename="3.png"
       inkscape:export-xdpi="90"
       inkscape:export-ydpi="90"
       transform="matrix(0,1,-1,0,0,0)" />
    <rect
       transform="matrix(0,1,-1,0,0,0)"
       inkscape:export-ydpi="90"
       inkscape:export-xdpi="90"
       inkscape:export-filename="1.png"
       style="fill:#ff0000;fill-opacity:1;stroke:none"
       id="rect3080"
       width="50"
       height="50"
       x="600.6944"
       y="923.57141" />
    <text
       xml:space="preserve"
       style="font-size:40px;font-style:normal;font-variant:normal;font-weight:normal;font-stretch:normal;line-height:125%;letter-spacing:0px;word-spacing:0px;fill:#000000;fill-opacity:1;stroke:none;font-family:Ubuntu;-inkscape-font-specification:Ubuntu"
       x="-837.85718"
       y="642.36218"
       id="text3100"
       sodipodi:linespacing="125%"><tspan
         sodipodi:role="line"
         id="tspan3102"
         x="-837.85718"
         y="642.36218">f</tspan></text>
    <text
       sodipodi:linespacing="125%"
       id="text3104"
       y="628.43359"
       x="-898.92859"
       style="font-size:40px;font-style:normal;font-variant:normal;font-weight:normal;font-stretch:normal;line-height:125%;letter-spacing:0px;word-spacing:0px;fill:#000000;fill-opacity:1;stroke:none;font-family:Ubuntu;-inkscape-font-specification:Ubuntu"
       xml:space="preserve"><tspan
         y="628.43359"
         x="-898.92859"
         id="tspan3106"
         sodipodi:role="line">e</tspan></text>
    <text
       xml:space="preserve"
       style="font-size:40px;font-style:normal;font-variant:normal;font-weight:normal;font-stretch:normal;line-height:125%;letter-spacing:0px;word-spacing:0px;fill:#000000;fill-opacity:1;stroke:none;font-family:Ubuntu;-inkscape-font-specification:Ubuntu"
       x="-958.21429"
       y="637.36218"
       id="text3108"
       sodipodi:linespacing="125%"><tspan
         sodipodi:role="line"
         id="tspan3110"
         x="-958.21429"
         y="637.36218">d</tspan></text>
    <path
       style="fill:#000000;fill-opacity:1"
       id="path3791"
       d="m -943.23181,542.39722 c -0.0651,-0.003 -0.13116,0.003 -0.19531,-0.009 -0.64366,-0.11546 -1.26613,-0.28184 -1.91968,-0.36158 -1.09589,-0.13371 -1.40054,-0.11842 -2.54609,-0.16013 -2.20561,0.0348 -4.64091,0.24405 -6.41288,1.72498 -0.2354,0.19675 -0.41659,0.4505 -0.62488,0.67576 -0.0947,0.21763 -0.22893,0.42206 -0.28419,0.6529 -0.30267,1.26414 1.62959,2.69943 2.40398,3.35486 1.97595,1.56501 4.22126,2.77196 6.13556,4.41798 0.33517,0.28821 0.64517,0.60446 0.96775,0.90668 1.14562,1.22472 2.00213,2.70167 2.02753,4.42406 0.0179,1.2094 -0.18175,1.47997 -0.56212,2.62007 -1.18224,2.33654 -3.12022,4.23313 -5.50418,5.34403 -0.54183,0.25249 -1.11831,0.42279 -1.67746,0.63418 -0.60923,0.12438 -1.20974,0.30397 -1.82768,0.37311 -2.30425,0.25785 -5.31256,-0.24896 -6.98473,-2.01724 -0.40346,-0.42665 -0.63143,-0.99023 -0.94714,-1.48535 -0.30696,-0.35325 -0.61392,-0.7065 -0.92087,-1.05976 -0.0536,-0.0462 0.0117,-0.12202 0.0653,-0.0758 l 0,0 c 0.37913,0.23756 0.75826,0.47513 1.1374,0.71269 0.50595,0.0525 1.01614,0.0736 1.51784,0.15743 0.46549,0.0778 0.91708,0.22364 1.37767,0.32657 1.83344,0.40975 3.6702,0.68148 5.52238,0.18312 0.42074,-0.14853 0.85298,-0.26782 1.26222,-0.44562 1.74595,-0.75851 3.2309,-2.03895 4.19731,-3.67665 0.1,-0.22719 0.22073,-0.44633 0.29988,-0.68158 0.41564,-1.23526 -0.15065,-2.33505 -0.96121,-3.2556 -0.25617,-0.24874 -0.49951,-0.51139 -0.7685,-0.74621 -1.93147,-1.6862 -4.23193,-2.88329 -6.2177,-4.49869 -0.92716,-0.81151 -1.64506,-1.33356 -2.34638,-2.3646 -0.91309,-1.34235 -1.29279,-2.92186 -0.71024,-4.48913 0.17499,-0.47077 0.50601,-0.86774 0.75901,-1.30162 1.02875,-1.02033 1.14264,-1.28676 2.47023,-1.96579 2.07272,-1.06016 4.45311,-1.3034 6.74138,-1.34921 2.05417,0.11373 4.40211,0.1977 6.0282,1.63075 1.27598,1.06236 -0.22643,2.86687 -1.50241,1.80451 z"
       inkscape:connector-curvature="0" />
    <path
       style="fill:#000000;fill-opacity:1"
       id="path3801"
       d="m -884.86397,538.73717 c -1.06208,-0.1611 -2.11567,-0.18907 -3.13474,0.22119 -0.33494,0.13484 -0.64624,0.32225 -0.96936,0.48338 -2.18281,1.42499 -3.90632,3.58158 -4.69131,6.09026 -0.16168,0.51668 -0.2258,1.05896 -0.3387,1.58844 -0.11838,1.92663 0.44098,3.68898 2.10856,4.80539 1.1061,0.74052 1.75455,0.79652 3.04456,1.14939 0.6662,0.057 1.32998,0.1656 1.99858,0.17096 2.94376,0.0236 6.0748,-0.77189 8.57925,-2.34286 0.56773,-0.35612 1.06422,-0.81486 1.59633,-1.22229 0.39978,-0.45729 0.85551,-0.87114 1.19934,-1.37186 0.89056,-1.29691 1.31054,-2.93677 0.98605,-4.49432 -0.26921,-1.29217 -0.64647,-1.57195 -1.40627,-2.61238 -0.44284,-0.34858 -0.8464,-0.75389 -1.3285,-1.04576 -2.48003,-1.50142 -5.61387,-1.83087 -8.44361,-1.56354 -0.73657,0.0696 -1.46074,0.23607 -2.19111,0.3541 -1.25302,0.93555 -2.83228,0.0263 -4.1408,0.49561 -0.57037,0.20454 -0.92064,0.78807 -1.38095,1.1821 -0.0614,0.0525 -0.13569,-0.0344 -0.0743,-0.0869 l 0,0 c 0.46664,-0.39842 0.98249,-0.74553 1.3999,-1.19525 2.68813,-2.89625 0.0659,-1.2611 3.74351,-2.97052 0.85451,-0.16056 1.69892,-0.38989 2.56353,-0.48167 3.46124,-0.36744 7.34382,0.18449 10.27488,2.17682 0.67145,0.4564 1.22193,1.06932 1.83289,1.60398 0.41814,0.64711 0.93611,1.23972 1.25442,1.94135 1.2688,2.79669 0.6284,6.0344 -1.14599,8.44482 -0.46227,0.62798 -1.05575,1.14787 -1.58362,1.7218 -0.65796,0.47694 -1.28024,1.00744 -1.97387,1.43083 -2.95751,1.80526 -6.54904,2.76572 -10.0132,2.70538 -0.83468,-0.0145 -1.66107,-0.16871 -2.4916,-0.25307 -1.88317,-0.56263 -2.60239,-0.58089 -4.17045,-1.80051 -1.66346,-1.29383 -2.68211,-3.19632 -2.8863,-5.28827 -0.0664,-0.68001 0.0382,-1.36595 0.0573,-2.04892 0.1639,-0.67496 0.27102,-1.36629 0.49169,-2.02487 1.04668,-3.12388 3.24102,-5.72111 6.02735,-7.42886 0.46288,-0.20441 0.91148,-0.4448 1.38862,-0.61322 1.49782,-0.52871 3.22371,-0.64602 4.69619,0.007 1.60654,0.62102 0.72828,2.89301 -0.87825,2.27199 z"
       inkscape:connector-curvature="0" />
    <path
       style="fill:#000000;fill-opacity:1"
       id="path3805"
       d="m -946.0509,534.66915 c -0.97617,-0.0186 -1.87854,-0.4207 -2.80474,-0.67473 -1.1452,-0.3141 -1.23505,-0.29147 -2.45138,-0.48243 -2.97927,-0.3775 -5.8942,0.33708 -8.41329,1.97608 -0.65948,0.42908 -1.25642,0.94739 -1.88463,1.42108 -0.60664,0.62135 -1.25896,1.20119 -1.81994,1.86406 -2.50074,2.95493 -4.28761,6.62919 -4.95704,10.44891 -0.16765,0.95655 -0.19019,1.93294 -0.28528,2.89941 0.0472,0.94961 0.013,1.90677 0.14146,2.84884 0.37581,2.75624 1.44919,5.40826 3.15605,7.60881 1.48979,1.92069 2.18747,2.26717 4.09579,3.7461 0.84267,0.46483 1.65699,0.98523 2.52801,1.39449 3.49114,1.64035 7.45641,2.45181 11.31233,2.12989 0.93352,-0.0779 1.85055,-0.29248 2.77583,-0.43872 0.90526,-0.27688 1.82998,-0.4967 2.71578,-0.83065 3.67373,-1.38498 7.15076,-3.6433 9.95881,-6.38103 0.65907,-0.64257 1.23981,-1.36085 1.85971,-2.04127 0.4723,-0.71352 1.02185,-1.38153 1.41689,-2.14056 1.64257,-3.15593 1.59433,-6.79628 0.87245,-10.19185 -0.19556,-0.91984 -0.50026,-1.81306 -0.75038,-2.71958 -1.13458,-3.14419 -2.88006,-6.09708 -5.93121,-7.71289 -1.96559,-1.04092 -2.78565,-1.00505 -4.98102,-1.40084 -3.11756,-0.0509 -2.90209,-0.17481 -6.05271,0.30374 -1.03259,0.15684 -2.04374,0.44076 -3.07805,0.58572 -1.03908,0.14563 -2.13539,-0.0345 -3.13477,0.28503 -0.89791,0.28711 -1.60389,0.99108 -2.40584,1.48662 -0.0687,0.0426 -0.12889,-0.0546 -0.0602,-0.0971 l 0,0 c 0.80581,-0.50074 1.65258,-0.94089 2.41743,-1.50221 0.91963,-0.67491 1.63266,-1.63216 2.62353,-2.19733 1.01064,-0.57645 2.15883,-0.88987 3.2871,-1.17396 2.88162,-0.72557 4.01067,-0.52515 6.93136,-0.4899 2.67629,0.52298 3.71247,0.50308 6.11584,1.82889 3.64222,2.00922 5.72815,5.53107 7.03574,9.351 0.66185,2.59243 1.04123,3.54713 1.1828,6.24438 0.16314,3.10847 -0.33247,6.13288 -1.81768,8.89285 -0.47334,0.87961 -1.10295,1.66569 -1.65442,2.49854 -0.69801,0.75597 -1.34998,1.5572 -2.09401,2.26791 -3.06424,2.92705 -7.00169,5.4088 -10.99922,6.82238 -1.00475,0.35529 -2.04992,0.58385 -3.07487,0.87577 -2.79398,0.39617 -3.47976,0.63595 -6.31866,0.46644 -4.39191,-0.26225 -8.6033,-1.6671 -12.32788,-3.9859 -2.24585,-1.73408 -3.04817,-2.11546 -4.7804,-4.40046 -2.74118,-3.61592 -3.75568,-7.76197 -3.73096,-12.23508 0.13011,-1.0958 0.18311,-2.20353 0.39033,-3.28739 0.81989,-4.28865 2.81611,-8.38921 5.7013,-11.66647 0.65962,-0.74927 1.42053,-1.40289 2.13079,-2.10433 0.7415,-0.54999 1.44372,-1.15732 2.22449,-1.64997 3.04811,-1.92326 6.59692,-2.61073 10.14914,-2.18245 1.94715,0.39715 4.12618,0.78119 5.56741,2.26933 1.04007,0.55282 0.25827,2.02369 -0.7818,1.47088 z"
       inkscape:connector-curvature="0" />
    <path
       style="fill:#000000;fill-opacity:1"
       id="path3809"
       d="m -830.58921,544.05247 c 0.49795,3.36699 0.43477,6.77877 0.35847,10.17082 -0.14055,3.2831 -0.22993,6.56856 -0.37842,9.85126 0.0381,0.90524 0.0213,-0.0149 -0.0955,-0.12575 -0.32259,-0.30623 -0.79006,-0.41886 -1.14029,-0.69304 -0.0413,-0.0324 0.0584,-0.092 0.10377,-0.11841 0.2492,-0.14509 0.51295,-0.26368 0.77157,-0.39123 0.38268,-0.18875 0.76815,-0.37175 1.15223,-0.55763 2.98354,-1.30835 6.17043,-2.17592 9.42627,-2.41609 0.62786,-0.0463 1.25855,-0.0386 1.88783,-0.0578 1.53408,0.12679 3.91789,0.0364 4.97712,1.434 0.20312,0.268 0.28315,0.61005 0.42472,0.91507 0.0754,0.029 0.0344,0.13566 -0.041,0.10668 l 0,0 c -0.28201,0.14231 -0.54674,0.32589 -0.84602,0.42693 -1.36941,0.4623 -3.01345,-0.32411 -4.43137,-0.16911 -0.54878,0.0169 -1.09911,0.006 -1.64634,0.0508 -2.9438,0.23938 -5.81818,1.08581 -8.50559,2.28704 -0.27213,0.13131 -2.6001,1.37049 -2.8314,1.35206 -1.64982,-0.13147 -2.10259,-0.75328 -2.14469,-2.15698 0.10578,-3.27084 0.49651,-6.53186 0.51383,-9.80804 0.0904,-3.26242 0.14257,-6.53547 -0.18456,-9.78785 -0.22114,-1.85923 2.40821,-2.17196 2.62934,-0.31273 z"
       inkscape:connector-curvature="0" />
    <path
       style="fill:#000000;fill-opacity:1"
       id="path3811"
       d="m -827.94837,539.14759 c -1.47224,-0.62872 -2.51142,-0.67754 -4.11702,-0.57898 -3.21841,0.49594 -6.13295,2.07561 -8.36903,4.44877 -0.56516,0.59981 -1.03838,1.28003 -1.55756,1.92004 -1.87255,2.84831 -2.92789,6.08169 -2.70282,9.51639 0.1451,2.2143 0.48015,2.81153 1.15429,4.90714 1.72725,3.99441 4.65577,7.2448 8.36719,9.5054 0.71354,0.43461 1.47346,0.78804 2.21019,1.18206 3.87873,1.70935 7.80625,2.02152 11.93654,1.11855 0.82801,-0.18102 1.63565,-0.44509 2.45348,-0.66764 2.90139,-1.02532 5.80568,-2.344 7.99214,-4.58004 1.29082,-1.3201 1.43793,-1.81194 2.35249,-3.40438 0.25897,-0.69414 0.57451,-1.36972 0.7769,-2.0824 0.86091,-3.03144 0.84453,-6.38867 -0.21486,-9.37051 -0.26292,-0.74004 -0.65311,-1.42849 -0.97967,-2.14273 -0.45113,-0.67453 -0.85459,-1.3835 -1.35339,-2.02359 -2.20346,-2.82762 -5.39856,-5.27911 -8.57673,-6.90781 -0.84941,-0.43529 -1.74969,-0.76321 -2.62454,-1.14481 -3.0484,-0.8428 -2.42602,-0.81488 -5.59295,-1.11055 -0.96427,-0.09 -1.93913,-0.0599 -2.89948,-0.18495 -1.00826,-0.13128 -1.99611,-0.3883 -2.99417,-0.58244 -0.0796,0.014 -0.0994,-0.0985 -0.0198,-0.11256 l 0,0 c 0.98043,-0.54269 1.8743,-1.28555 2.94127,-1.62808 3.09006,-0.992 6.79264,-0.0293 9.76199,0.85913 0.98694,0.42589 1.99977,0.79619 2.96082,1.27766 3.68151,1.84437 7.15758,4.52406 9.65136,7.82255 0.59168,0.78261 1.06514,1.64795 1.59772,2.47192 1.00694,2.33345 1.41756,2.88779 1.82748,5.41722 0.61031,3.7659 -0.0356,7.55282 -1.54735,11.02362 -1.21107,2.05504 -1.32102,2.55502 -3.02968,4.22892 -2.56142,2.50932 -5.89296,4.00655 -9.24172,5.13442 -2.40925,0.62828 -3.13438,0.92728 -5.63196,1.13683 -3.78943,0.31793 -7.50055,-0.35671 -10.93245,-1.99292 -0.8292,-0.45567 -1.68712,-0.86259 -2.4876,-1.36701 -3.30058,-2.07986 -6.18754,-4.9449 -8.11363,-8.35206 -0.48888,-0.8648 -0.85274,-1.79455 -1.27911,-2.69183 -0.732,-2.44925 -1.12767,-3.23663 -1.25661,-5.81746 -0.20307,-4.06459 1.07422,-7.87808 3.37869,-11.19186 0.61807,-0.73208 1.18608,-1.50955 1.8542,-2.19626 2.71388,-2.78937 6.23559,-4.66447 10.12687,-5.01007 1.95394,0.0107 4.23163,0.0416 5.53451,1.74528 1.00765,0.95881 -0.34831,2.38385 -1.35597,1.42504 z"
       inkscape:connector-curvature="0" />
    <path
       style="fill:#000000;fill-opacity:1"
       id="path3823"
       d="m -880.6937,528.66613 c -1.92983,-0.37239 -3.90106,-0.61761 -5.86888,-0.41661 -0.72396,0.074 -1.437,0.23099 -2.1555,0.34648 -3.58015,0.84409 -6.89457,2.48359 -9.44651,5.18595 -1.91911,2.03223 -2.20684,2.90164 -3.58032,5.34173 -0.40565,1.06958 -0.89223,2.11188 -1.21695,3.20874 -1.24642,4.21019 -1.42928,9.03381 0.49349,13.08456 0.44255,0.93232 1.09882,1.74724 1.64823,2.62087 0.76318,0.72416 1.44153,1.54978 2.28952,2.17247 4.18331,3.07188 9.84118,3.74207 14.86545,3.20842 1.43188,-0.15209 2.83212,-0.52227 4.24819,-0.78341 1.30825,-0.47579 2.66772,-0.82925 3.92476,-1.42739 3.47461,-1.65333 6.37638,-4.27872 7.89372,-7.87019 1.31289,-3.10753 1.12546,-4.60775 1.35464,-7.95026 -0.17718,-1.46241 -0.21661,-2.94818 -0.53155,-4.38722 -0.9412,-4.30054 -3.08427,-8.26883 -6.4364,-11.17052 -2.84,-2.45838 -4.30006,-2.77131 -7.7097,-4.23849 -1.39291,-0.382 -7.04213,-1.96419 -8.52059,-2.24159 -1.29358,-0.24271 -2.61377,-0.31184 -3.92065,-0.46776 -0.0807,0.004 -0.0864,-0.11012 -0.006,-0.11414 l 0,0 c 1.3544,-0.28844 2.68872,-0.69673 4.06319,-0.86533 4.92683,-0.60434 4.72285,-0.21044 9.60586,0.8552 3.99469,1.72636 5.52417,2.00793 8.8313,4.9465 3.81817,3.39265 6.16755,7.97638 7.18067,12.9418 0.33361,1.63509 0.36193,3.31787 0.54289,4.9768 -0.33437,4.06583 -0.0971,5.54877 -1.79875,9.30932 -1.90993,4.22069 -5.33937,7.29438 -9.50208,9.21439 -1.42143,0.65562 -2.95523,1.03339 -4.43285,1.55009 -1.57592,0.26547 -3.13594,0.65453 -4.72776,0.79641 -5.82123,0.51884 -12.27007,-0.49006 -16.97849,-4.1934 -1.01421,-0.79772 -1.81407,-1.8355 -2.72111,-2.75325 -0.63522,-1.07826 -1.39699,-2.09136 -1.90567,-3.23477 -2.08241,-4.68096 -1.90313,-10.19791 -0.42031,-15.01256 0.37911,-1.23096 0.94453,-2.39662 1.41679,-3.59493 1.65623,-2.82942 1.92015,-3.68848 4.21533,-6.02781 2.97488,-3.0321 6.77188,-4.93046 10.91187,-5.74728 3.143,-0.37425 6.38362,-0.74723 9.28735,0.811 1.36201,0.6318 0.46852,2.55798 -0.8935,1.92618 z"
       inkscape:connector-curvature="0" />
    <path
       style="fill:#000000;fill-opacity:1"
       id="path3829"
       d="m -406.90087,512.90221 c 15.67981,-10.09471 29.66632,-22.62019 43.88448,-34.62478 11.72487,-9.94027 23.41634,-19.91925 35.0468,-29.96981 1.40928,-1.21784 13.00067,-11.32964 15.40025,-13.18372 1.62969,-1.25923 3.40554,-2.31695 5.10832,-3.47543 2.06379,-0.32979 4.38188,-2.03524 6.19136,-0.98938 8.69226,5.02401 7.20805,10.22681 6.30419,18.20759 -0.45497,4.01734 -1.22454,7.99326 -1.91101,11.97757 -1.81738,10.54779 -3.7924,21.06794 -5.62568,31.61296 -2.88133,17.17149 -5.12079,34.45675 -6.27145,51.83534 -0.86232,13.02386 -0.97221,26.09585 -1.20819,39.14127 -0.61125,10.90572 0.15506,7.4397 -2.42252,17.27347 -0.52185,1.99086 -1.34797,3.90684 -1.70971,5.93291 -0.22006,1.23246 -0.0127,2.50388 -0.0202,3.75581 0.0194,0.26818 -0.35976,0.29574 -0.37926,0.0276 l 0,0 c -0.18841,-1.24777 -0.21366,-2.53136 -0.56523,-3.74332 -0.57365,-1.97751 -1.51177,-3.83155 -2.19554,-5.77372 -3.39024,-9.62974 -2.33486,-6.24475 -3.82614,-17.19683 -0.72199,-10.86542 -1.11477,-13.71587 -0.95087,-25.04568 0.33205,-22.95567 3.2548,-45.7838 6.98405,-68.40542 2.4965,-14.17656 5.17005,-28.32997 7.50884,-42.53379 0.31197,-1.89465 -0.66786,-4.52419 0.85248,-5.69708 1.38243,-1.06651 3.41607,0.72422 5.12409,1.08635 0.31021,-0.37377 0.62042,-0.7475 0.93062,-1.12127 -1.35613,0.85525 -2.78466,1.60528 -4.0684,2.56578 -3.76151,2.81437 -12.3031,10.37056 -15.31878,12.96887 -11.69114,10.0732 -23.4304,20.09147 -35.25874,30.00336 -9.99392,8.23808 -13.41939,11.19021 -23.39595,18.94221 -6.84011,5.31492 -13.90145,10.99133 -21.76102,14.80003 -1.14057,0.55269 -2.37504,0.88586 -3.56258,1.32879 -6.85868,2.03945 -9.74289,-7.66017 -2.8842,-9.69963 z"
       inkscape:connector-curvature="0" />
    <path
       style="fill:#000000;fill-opacity:1"
       id="path3831"
       d="m -377.65727,698.08214 c 0.32397,-0.76135 0.5136,-1.59515 0.97192,-2.28401 5.72107,-8.59882 20.93652,-13.08396 30.0841,-16.13446 16.49107,-4.34355 34.40549,-7.1512 51.07429,-1.84776 2.89241,0.92027 5.58321,2.38323 8.3748,3.57482 2.30061,1.68001 4.88874,3.02437 6.90183,5.03998 7.01939,7.02823 8.49239,15.46113 5.1769,24.74073 -2.99097,8.3713 -7.52777,12.78013 -13.01682,19.66715 -14.1431,15.29547 -30.54829,28.23064 -45.0859,43.13426 -10.08139,10.3352 -10.18142,11.00643 -18.88054,21.95009 -5.78613,8.25695 -11.46827,17.05997 -13.44628,27.14328 -0.74215,3.78316 -0.82318,7.82693 0.82682,11.4143 0.58943,1.28151 1.7005,2.25101 2.55076,3.3765 1.25078,0.75896 2.39814,1.72311 3.75233,2.27684 7.23653,2.95906 15.99308,2.2014 23.52819,1.57206 9.53519,-0.7964 14.37177,-1.78449 23.89146,-3.33882 7.47734,-2.14826 15.30164,-1.95459 22.89526,-3.28992 3.02923,-0.53268 5.97144,-1.47717 8.95716,-2.21576 0.25251,-0.0923 0.38319,0.26471 0.13063,0.35711 l 0,0 c -2.78891,1.37442 -5.60641,2.69233 -8.36676,4.12329 -15.77205,8.17631 -4.04675,3.11661 -21.64749,9.84128 -4.19893,1.18289 -8.35307,2.53816 -12.59679,3.54869 -13.4147,3.19432 -31.09599,6.07113 -43.87146,-1.07697 -2.5377,-1.41989 -4.49788,-3.68689 -6.74681,-5.53033 -1.35292,-2.41587 -3.13022,-4.63906 -4.05878,-7.24763 -4.46729,-12.54941 1.34336,-26.69009 7.55527,-37.45147 2.19772,-3.80727 4.8019,-7.36498 7.20284,-11.04746 9.15705,-11.40663 9.43974,-12.30603 19.92021,-23.0414 14.25391,-14.60061 30.09675,-27.52828 44.45724,-42.01809 4.71674,-5.38265 15.43843,-15.46231 12.72772,-24.08411 -1.29349,-4.1142 -3.88119,-5.34369 -7.0743,-7.95733 -2.15761,-0.96968 -4.22842,-2.16186 -6.4728,-2.90904 -14.70018,-4.8938 -30.67834,-2.08323 -45.26098,1.61262 -2.81016,0.9129 -5.6563,1.72173 -8.43047,2.73877 -6.39109,2.343 -12.34097,5.50675 -18.04121,9.17852 -2.69813,5.64438 -10.6805,1.82865 -7.98237,-3.81573 z"
       inkscape:connector-curvature="0" />
    <path
       style="fill:#000000;fill-opacity:1"
       id="path3833"
       d="m -353.52968,1041.7785 c 0.56551,-0.7984 1.03847,-1.6712 1.69648,-2.3952 6.56067,-7.2191 18.73512,-10.767 27.72512,-13.4628 10.87202,-2.3087 26.54315,-4.7687 34.5143,5.5136 1.42472,1.8378 2.04754,4.1758 3.07131,6.2637 0.085,2.4071 0.60857,4.8389 0.25509,7.2215 -1.87007,12.6054 -14.50687,21.9264 -24.00781,28.8752 -1.46127,0.9946 -7.49295,5.0833 -9.31721,6.3815 -0.80837,0.5753 -1.6282,1.1394 -2.38409,1.7821 -0.0482,0.041 0.15706,0.1809 0.14924,0.1183 -1.10838,-8.8481 -1.80426,-5.5107 -1.01696,-8.8893 11.23951,-1.1735 22.58286,-2.4276 33.88815,-1.3036 2.6784,0.2664 5.32287,0.8039 7.98432,1.2057 8.85892,2.1642 18.40754,5.7309 22.64674,14.5864 2.57324,5.3753 1.80563,7.3694 1.62507,13.1429 -0.68711,2.3178 -1.14254,4.7173 -2.06132,6.9535 -4.70338,11.4473 -14.88683,21.8272 -24.04924,29.799 -3.1191,2.7136 -6.41692,5.2149 -9.6254,7.8223 -10.14237,7.7955 -21.19503,14.2258 -33.65981,17.4816 -4.51951,1.1804 -14.58077,2.322 -19.56343,2.9514 -0.26273,0.058 -0.34362,-0.3144 -0.0809,-0.3716 l 0,0 c 2.71438,-0.8578 5.58393,-1.3268 8.14309,-2.5736 3.08602,-1.5034 5.80738,-3.6646 8.6407,-5.6026 9.88326,-6.7604 19.389,-14.0804 29.20273,-20.9398 11.21513,-9.0093 23.72976,-18.9204 30.26197,-32.1339 0.67577,-1.367 1.11112,-2.8401 1.66669,-4.2602 0.42148,-2.43 1.01494,-3.9082 0.23524,-6.3191 -2.01326,-6.2257 -9.48291,-8.2203 -14.97725,-9.7169 -2.30112,-0.3298 -4.58839,-0.7775 -6.90337,-0.9893 -10.95506,-1.0018 -21.94527,0.3697 -32.82128,1.562 -7.13363,-0.4898 -7.43682,1.1694 -8.42105,-9.4586 -0.0896,-0.969 1.23392,-1.5158 1.96027,-2.1634 3.56568,-3.1789 8.10616,-5.1245 11.77146,-8.1692 7.26181,-5.3897 16.13405,-11.289 19.37674,-20.1991 0.31347,-0.8614 0.41956,-1.7847 0.62936,-2.677 -0.0972,-0.7588 0.0255,-1.5802 -0.29155,-2.2765 -0.98511,-2.1643 -3.16844,-3.2587 -5.34146,-3.8592 -6.0443,-1.6704 -12.4197,-0.3981 -18.38752,0.804 -2.25355,0.6511 -4.53572,1.2103 -6.76063,1.9535 -5.99851,2.0034 -11.64581,4.7619 -16.89082,8.2673 -3.48193,6.2811 -12.36488,1.357 -8.88295,-4.9242 z"
       inkscape:connector-curvature="0" />
    <path
       style="fill:#000000;fill-opacity:1"
       id="path3835"
       d="m -511.03869,1346.7425 c 1.12408,13.7537 0.81822,27.5974 0.72485,41.3852 -0.97647,24.9274 0.3902,49.8503 0.18242,74.7736 -1.52895,10.7976 -1.09982,5.7326 -1.50068,15.1753 0.0313,0.2671 -0.34645,0.3113 -0.37769,0.045 l 0,0 c -2.58239,-9.1644 -1.03764,-4.2649 -4.79085,-14.6481 -0.61778,-3.4455 -1.37209,-6.8693 -1.85335,-10.3365 -2.99053,-21.545 -2.00119,-43.4232 -2.26159,-65.0978 0.13613,-13.5314 0.22149,-27.0689 -0.32963,-40.5917 -0.49786,-7.2171 9.70864,-7.9212 10.20652,-0.7041 z"
       inkscape:connector-curvature="0" />
    <path
       style="fill:#000000;fill-opacity:1"
       id="path3837"
       d="m -515.24161,1344.5489 c 11.01021,-4.6874 21.76328,-9.9815 32.96806,-14.2083 3.50294,-1.3216 7.06597,-2.4779 10.59896,-3.7168 13.96446,-3.6457 7.12272,-1.8708 20.52458,-5.3276 0.2495,-0.1 0.39129,0.2526 0.14174,0.3529 l 0,0 c -12.00293,6.7507 -5.92117,3.2339 -18.23479,10.5685 -14.11456,7.4082 -28.4027,14.7229 -43.37938,20.2364 -5.58967,1.8519 -8.20887,-6.0531 -2.61921,-7.9051 z"
       inkscape:connector-curvature="0" />
    <path
       style="fill:#000000;fill-opacity:1"
       id="path3839"
       d="m -516.84491,1404.9358 c 11.26885,-2.6684 21.92953,-7.4667 32.65459,-11.7565 7.81292,-3.0206 13.31383,-5.3981 21.46396,-7.5257 0.37666,-0.099 20.12778,-4.1334 21.11267,-4.3347 0.25469,-0.086 0.37664,0.2739 0.1219,0.36 l 0,0 c -3.05852,1.4847 -6.15201,2.8993 -9.17556,4.4538 -3.31224,1.7031 -6.49356,3.6561 -9.82718,5.3169 -7.19947,3.5867 -13.32776,5.9713 -20.74244,9.0376 -4.46068,1.8213 -13.25352,5.4483 -17.95736,7.2363 -5.0601,1.9234 -10.77076,4.3422 -16.29122,4.6361 -0.92676,0.049 -1.84714,-0.1827 -2.77072,-0.2741 -5.0557,-0.9979 -3.64438,-8.1477 1.41132,-7.1497 z"
       inkscape:connector-curvature="0" />
    <path
       style="fill:#000000;fill-opacity:1"
       id="path3845"
       d="m -422.40161,1419.446 c -1.26488,8.0402 -1.78529,16.1751 -2.38289,24.2864 -0.8785,6.9691 -0.50718,14.2691 -2.31234,21.1181 -0.5142,1.9509 -1.46453,3.76 -2.17876,5.6467 -0.56627,1.4961 -1.10844,3.001 -1.66266,4.5018 0.006,0.2686 -0.37454,0.2766 -0.38019,0 l 0,0 c -1.18647,-2.9598 -3.17207,-7.5408 -3.68558,-10.5908 -1.15577,-6.8646 0.31968,-14.5141 0.38679,-21.4086 0.4397,-5.9612 0.52863,-7.6206 1.08066,-13.4242 0.48414,-5.0895 0.92555,-10.3391 3.17925,-15.012 3.44674,-5.6255 11.40244,-0.751 7.95572,4.8745 z"
       inkscape:connector-curvature="0" />
    <path
       style="fill:#000000;fill-opacity:1"
       id="path3847"
       d="m -413.99718,1385.5218 c -2.39665,1.0227 -5.06044,1.9414 -6.52108,4.2461 0.001,0.071 -0.0476,0.2541 0.006,0.209 1.25313,-1.0617 -0.38227,-2.5496 -1.164,-3.1884 0.20405,-0.6596 1.19405,-2.0022 0.5588,-2.626 1.837,2.9619 3.26996,-2.2537 1.65615,-0.5474 -0.14624,0.2256 -0.46537,0.018 -0.31906,-0.2069 l 0,0 c 0.42096,-0.8502 1.40313,-2.9294 1.94382,-3.1344 2.25373,-0.8552 3.01541,1.1939 3.82266,2.4354 0.10724,0.6746 0.30347,1.3408 0.32204,2.0236 0.10978,4.0346 -2.40273,7.4018 -5.96631,9.0198 -0.78864,0.1481 -1.56405,0.4708 -2.36596,0.4432 -5.04686,-0.1732 -6.20755,-4.9806 -3.97527,-8.7065 2.68085,-3.1842 6.30153,-5.4823 10.34808,-6.5301 4.64045,-1.1698 6.29489,5.3928 1.65446,6.5626 z"
       inkscape:connector-curvature="0" />
    <path
       style="fill:#000000;fill-opacity:1"
       id="path3851"
       d="m -358.7206,1416.2516 c -0.10231,0 -0.22289,-0.049 -0.3067,0.017 -0.63184,0.4422 0.16238,0.4498 -0.76423,0.7201 -5.65235,1.6489 4.80325,-2.049 -3.89037,0.8674 -1.06033,0.3557 -2.07845,0.8267 -3.11768,1.24 -5.24892,2.9471 -10.90972,7.0648 -12.56464,13.2163 -0.21424,0.7964 -0.19499,1.6379 -0.29249,2.4567 0.18557,0.62 0.24576,1.2924 0.55671,1.8601 1.58847,2.8994 6.44282,3.6374 9.2914,3.6774 1.38652,0.02 2.76638,-0.1957 4.14958,-0.2938 7.20866,-1.3384 14.0882,-4.6396 18.61651,-10.5937 0.77269,-1.0159 1.35031,-2.1663 2.02548,-3.2498 0.52369,-1.143 1.09298,-2.2663 1.57108,-3.4294 1.10683,-2.6924 2.91018,-11.0765 7.05559,-11.0139 2.07929,0.031 3.80254,1.6846 5.70383,2.5271 0.65627,1.2911 1.43539,2.5269 1.96879,3.8736 3.11717,7.8696 3.84298,18.5908 3.78096,26.9328 -0.0228,3.064 -0.30751,6.1204 -0.46129,9.1805 -1.76286,15.6978 -5.66267,31.738 -15.4007,44.5584 -1.87734,2.4715 -4.14593,4.6198 -6.21888,6.9297 -2.48713,1.9072 -4.8004,4.0652 -7.4614,5.721 -7.78932,4.8466 -17.78267,8.1891 -27.07667,7.0632 -2.40486,-0.2913 -12.49041,-3.8587 -15.24255,-4.8009 -0.26214,-0.061 -0.17755,-0.4305 0.0847,-0.3709 l 0,0 c 2.26948,0.2586 4.53053,0.9442 6.80845,0.7755 2.58931,-0.1918 5.04307,-1.2382 7.56873,-1.8402 2.5854,-0.6163 5.20662,-1.0915 7.76423,-1.8146 7.75745,-2.1928 14.86563,-5.4152 20.91672,-10.8599 4.98913,-5.2294 6.37092,-6.0902 10.11025,-12.4168 5.99925,-10.1502 8.93433,-21.7436 10.31293,-33.3515 0.15206,-2.8279 0.42385,-5.6517 0.45608,-8.4836 0.0984,-8.6317 -1.32257,-17.149 -4.49439,-25.1866 6.19944,0.1015 1.38155,0.8977 5.11396,-1.7445 0.35916,-0.2544 -0.50051,0.7296 -0.68073,1.1311 -1.69583,3.7779 -2.61663,7.8919 -4.91412,11.4038 -0.98728,1.4416 -1.86543,2.9645 -2.96185,4.3249 -6.12382,7.5987 -14.95264,11.9109 -24.48242,13.347 -1.90243,0.078 -3.80528,0.3249 -5.7073,0.2364 -7.13653,-0.3323 -14.61625,-3.2134 -17.14478,-10.5352 -0.54023,-1.5643 -0.48513,-3.274 -0.72769,-4.9112 0.26531,-1.6244 0.309,-3.3011 0.79591,-4.8735 2.64142,-8.5299 10.26131,-14.4116 17.88996,-18.216 1.54362,-0.5557 3.04345,-1.2524 4.63082,-1.6666 5.11962,-1.3362 11.25211,-1.1225 14.23771,3.9421 0.40119,0.6807 0.49724,1.4999 0.74586,2.2496 0.99601,5.8304 -7.24925,7.239 -8.24528,1.4087 z"
       inkscape:connector-curvature="0" />
    <path
       style="fill:#000000;fill-opacity:1"
       id="path3853"
       d="m -302.83829,1364.0377 c 0.92814,-5.2428 5.28989,-6.1505 9.02684,-1.5527 0.93555,1.151 1.57566,7.244 1.71604,8.2348 1.13953,16.1575 1.31708,32.362 1.39651,48.5532 0.0206,6.39 -0.10232,12.7936 0.1078,19.1825 0.0341,1.0358 0.0767,2.074 0.2087,3.1019 0.0257,0.1991 0.42935,0.6506 0.25933,0.5438 -1.44736,-0.9098 -2.77463,-1.9979 -4.16195,-2.9968 -0.31252,-0.08 -1.02391,0.072 -0.93755,-0.239 0.26824,-0.9655 1.12667,-1.6573 1.69396,-2.4828 0.80106,-1.1663 1.55972,-2.3632 2.41106,-3.4933 3.47389,-4.6108 6.50624,-7.4104 10.94477,-11.0479 7.06002,-4.8898 16.13055,-8.4802 24.54783,-4.5784 1.60531,0.7442 2.9596,1.9401 4.4394,2.9103 1.23985,1.3613 2.63481,2.5962 3.71954,4.0843 4.3721,5.9974 7.00558,14.8089 7.7428,22.1275 0.19298,1.9159 0.0912,3.8501 0.13669,5.7753 0.46063,3.575 -1.62521,6.6545 -2.05722,10.0447 -0.15672,1.23 0.13825,2.4761 0.20735,3.714 0.0213,0.268 -0.35769,0.2982 -0.37907,0.03 l 0,0 c -0.12796,-1.2338 -0.0348,-2.5112 -0.38365,-3.7013 -0.93052,-3.1753 -3.31461,-5.8121 -3.79325,-9.1731 -0.4745,-1.7172 -0.9893,-3.4238 -1.42347,-5.1516 -1.85761,-7.3925 -3.12648,-15.2084 -8.39858,-21.0972 -1.91762,-1.4777 -2.66307,-2.3868 -5.09293,-2.9498 -5.13809,-1.1907 -9.98114,1.5573 -14.11488,4.2227 -3.65722,3.0258 -6.45388,5.703 -9.29451,9.5316 -0.80311,1.0824 -1.57401,2.1888 -2.32862,3.3055 -0.68321,1.011 -1.17067,2.167 -1.98397,3.0767 -1.0625,1.1884 -2.39378,2.106 -3.59067,3.1591 -1.96036,-0.8522 -4.18684,-1.2533 -5.88106,-2.5565 -0.82439,-0.6342 -0.91893,-5.7704 -0.92856,-6.0645 -0.21039,-6.4134 0.24354,-12.8231 0.003,-19.2372 -0.0775,-15.8622 -0.0965,-31.7543 -1.29699,-47.5782 -0.12317,-1.2235 -0.24426,-2.447 -0.36938,-3.6701 -0.0448,-0.4383 -0.57553,-1.2447 -0.14037,-1.3143 1.03544,-0.1663 1.99113,1.0073 3.02818,0.8522 2.35446,-0.3526 3.0732,-2.7778 1.63447,-1.2299 -1.65165,4.7148 -8.31935,2.3791 -6.6677,-2.3357 z"
       inkscape:connector-curvature="0" />
    <path
       style="fill:#000000;fill-opacity:1"
       id="path3855"
       d="m -192.33888,1348.1137 c 2.55851,13.1513 1.5982,26.7685 1.14506,40.0701 -0.5625,12.9936 -1.70871,25.9404 -2.787,38.896 -0.81846,9.8338 -0.8089,14.0446 -2.3618,23.6114 -0.51488,3.1721 -1.29052,6.2963 -1.93577,9.4444 -1.90802,9.1666 -1.1676,4.9427 -2.34523,12.6491 -0.006,0.2689 -0.38597,0.2607 -0.38018,0 l 0,0 c -0.84527,-7.7964 -0.33839,-3.5073 -1.5767,-12.8602 -0.3202,-3.2301 -0.81883,-6.4475 -0.96064,-9.6903 -0.40026,-9.1529 0.30567,-14.52 0.84629,-23.7665 0.7527,-12.8736 1.50998,-25.7467 2.17733,-38.625 0.5098,-12.4485 1.30496,-25.0963 -0.49473,-37.477 -1.58658,-6.1331 7.0868,-8.3767 8.67337,-2.2438 z"
       inkscape:connector-curvature="0" />
    <path
       style="fill:#000000;fill-opacity:1"
       id="path3857"
       d="m -233.69639,1394.9956 c 11.16452,-1.1059 22.22736,-3.2499 33.29977,-5.056 13.77522,-2.1611 27.59894,-4.1193 41.53263,-4.8944 5.88482,-0.3273 10.93965,-0.3324 16.79351,-0.4047 8.57268,0.282 4.4625,0.1647 12.33031,0.3626 0.26737,-0.028 0.30761,0.3498 0.0403,0.3782 l 0,0 c -7.65685,1.8505 -3.65848,0.8898 -11.99582,2.8791 -19.05319,3.7492 -38.23522,6.6534 -57.45308,9.4242 -11.63624,1.8515 -23.34275,4.4245 -35.16176,4.4611 -5.05587,-0.4344 -4.44166,-7.5845 0.6142,-7.1501 z"
       inkscape:connector-curvature="0" />
    <path
       style="fill:#000000;fill-opacity:1"
       id="path3859"
       d="m -103.19677,1344.2615 c 0.7828,13.3363 0.018,26.697 -0.32974,40.0343 -0.97123,14.9397 -1.49354,29.9047 -2.51,44.8422 -0.2029,2.9816 -0.2953,5.9767 -0.69052,8.9389 -0.33928,2.5429 -1.00602,5.0311 -1.50905,7.5466 -3.01579,7.4365 -1.64352,3.975 -4.13866,10.3764 -0.0127,0.2686 -0.39384,0.2486 -0.37972,-0.02 l 0,0 c -1.80315,-6.6592 -0.83323,-3.056 -2.90401,-10.8115 -0.1925,-2.5492 -0.54351,-5.0916 -0.57751,-7.6479 -0.0397,-2.987 0.21171,-5.9707 0.35664,-8.9545 0.72371,-14.8994 2.07914,-29.7626 2.50179,-44.6764 0.74321,-13.1422 0.96277,-26.2944 1.37223,-39.4501 -0.12598,-6.2285 8.68269,-6.4065 8.80855,-0.178 z"
       inkscape:connector-curvature="0" />
    <path
       style="fill:#000000;fill-opacity:1"
       id="path3861"
       d="m -104.75431,1482.5136 c -4.8806,-0.047 -8.85967,2.6754 -12.34551,5.8019 -2.04159,2.3933 -6.57428,7.9113 -3.67262,11.0979 3.2441,0.8033 6.19323,-2.5661 8.13641,-4.6169 0.94566,-1.675 4.73831,-7.4001 2.6388,-9.3703 -0.0599,-0.056 -1.37365,0.086 -1.38497,0.089 -1.48064,-0.5692 -2.49651,-1.8635 -3.85372,-2.6183 -0.95453,-0.5308 -2.02357,-0.8228 -3.03533,-1.2342 -0.26288,0.056 -0.34293,-0.3151 -0.08,-0.3719 l 0,0 c 4.24368,-3.6894 5.39565,-5.3386 11.46763,-4.549 1.42765,0.8797 3.10505,1.4452 4.283,2.6387 5.012266,5.0786 3.198267,12.8819 -0.22295,18.2006 -0.92659,1.4406 -2.15721,2.6609 -3.23581,3.9912 -2.8824,2.6553 -4.20588,4.3246 -7.84842,5.9306 -4.0911,1.8033 -8.86749,1.9105 -12.65789,-0.731 -1.12687,-0.7852 -1.9103,-1.9738 -2.86544,-2.9609 -0.54347,-1.2428 -1.28507,-2.4167 -1.63042,-3.7283 -1.92648,-7.3167 2.54507,-14.3382 7.23116,-19.4709 1.16326,-0.9984 2.25526,-2.0865 3.48975,-2.9954 4.78547,-3.5231 10.57371,-5.3512 16.50301,-5.1793 7.126061,0.6483 6.209436,10.7259 -0.91662,10.0778 z"
       inkscape:connector-curvature="0" />
    <path
       inkscape:connector-curvature="0"
       d="m 242.52091,933.19425 c -1.31675,5.33764 -0.57752,10.98079 -0.32343,16.39592 0.82182,21.3715 -1.12751,42.7102 -3.20923,63.95533 -0.59509,4.7596 -1.58211,14.8168 -3.16049,19.6694 -4.66273,14.3352 -2.83657,0.6309 -3.85951,12.2161 -0.0161,0.228 -0.33856,0.2052 -0.32244,-0.023 l 0,0 c 0.69404,-13.0484 0.30684,4.3719 -1.762,-12.7928 -0.57398,-4.7623 0.46528,-15.4119 0.7915,-19.8508 1.87899,-20.90823 4.00698,-41.87733 3.27191,-62.89943 -0.10578,-5.23497 -0.77845,-12.86729 1.03542,-17.89832 0.68981,-1.9133 1.11601,-2.19902 2.30292,-3.58411 3.40225,-3.70196 8.63761,1.10955 5.23535,4.81151 z"
       id="path3891"
       style="fill:#000000;fill-opacity:1" />
    <path
       inkscape:connector-curvature="0"
       d="m 235.92588,989.65737 c 11.28284,-10.0277 25.41782,-16.2991 38.9647,-22.6157 11.54806,-4.8949 23.18544,-9.7268 35.23342,-13.2835 3.45688,-1.0205 6.93366,-2.0157 10.47784,-2.6716 34.7438,-6.43015 -11.86881,3.7792 16.46538,-2.6031 0.21833,-0.068 0.31401,0.2411 0.0957,0.3087 l 0,0 c -15.8604,6.329 3.10511,-1.617 -14.82997,7.3489 -3.18055,1.59 -6.49614,2.8958 -9.7776,4.2655 -11.36735,4.7445 -22.97955,8.9104 -34.14542,14.1371 -13.04472,6.1579 -25.963,12.5676 -37.92295,20.6915 -3.9441,3.2251 -8.50518,-2.3527 -4.56108,-5.5778 z"
       id="path3893"
       style="fill:#000000;fill-opacity:1" />
    <path
       inkscape:connector-curvature="0"
       d="m 254.00854,991.77187 c 8.5328,5.3479 15.39469,12.93363 22.29963,20.15693 5.33346,6.2048 11.15799,12.0564 16.07387,18.616 1.43235,1.9112 3.00563,3.7741 3.99584,5.9476 2.00615,7.9268 0.64139,4.3928 3.76401,10.7237 0.12726,0.1899 -0.14126,0.3699 -0.26851,0.18 l 0,0 c -8.91323,-10.0773 3.8471,3.6629 -8.57433,-6.9831 -1.74976,-1.4996 -3.08794,-3.4222 -4.58783,-5.1718 -5.22701,-6.0971 -10.20369,-12.4194 -15.83837,-18.16 -6.48603,-6.9012 -12.98085,-13.8695 -20.47598,-19.70343 -3.96395,-2.5539 -0.35228,-8.1598 3.61167,-5.6059 z"
       id="path3895"
       style="fill:#000000;fill-opacity:1" />
    <path
       inkscape:connector-curvature="0"
       d="m 373.26931,993.06617 c -5.27121,0.4734 -10.5537,1.7198 -15.09629,4.5477 -1.28126,0.7976 -2.43078,1.7896 -3.64616,2.68443 -1.08157,1.1433 -2.27855,2.1875 -3.2447,3.4299 -4.01414,5.1617 -6.23505,12.0655 -4.69946,18.5689 0.3587,1.5192 1.12565,2.9119 1.68847,4.3678 0.9656,1.2427 1.76069,2.6391 2.8968,3.7281 5.91516,5.6699 15.09838,7.0132 22.92578,6.5128 2.52859,-0.1617 5.01753,-0.7099 7.52629,-1.0649 2.49792,-0.7255 5.05957,-1.2595 7.49376,-2.1764 8.71994,-3.2845 17.73143,-9.2052 21.79109,-17.9282 0.81634,-1.7541 1.12789,-3.7015 1.69184,-5.5522 0.009,-1.837 0.29345,-3.6936 0.0261,-5.511 -0.55555,-3.7766 -2.38256,-7.48453 -4.81019,-10.39333 -4.40391,-5.277 -10.83671,-8.5228 -16.63507,-11.9389 -2.23255,-1.2235 -4.4651,-2.447 -6.69765,-3.6704 -0.2245,-0.043 -0.16375,-0.3605 0.0607,-0.3175 l 0,0 c 2.81034,-0.2586 5.62068,-0.5171 8.43102,-0.7757 2.82614,0.6228 5.7777,0.8285 8.47841,1.8683 10.43574,4.0175 18.83158,14.2976 19.92778,25.51933 0.2614,2.6759 -0.28407,5.3697 -0.42611,8.0546 -0.9229,2.5305 -1.51897,5.2055 -2.76869,7.5916 -5.41859,10.3459 -16.091,17.2468 -26.79662,21.0549 -2.83862,1.0097 -5.80477,1.6168 -8.70715,2.4252 -2.94148,0.3448 -5.86524,0.9145 -8.82443,1.0344 -10.44346,0.4232 -21.87197,-2.0257 -29.20732,-10.0528 -1.57075,-1.7189 -2.61721,-3.852 -3.92582,-5.7779 -0.69458,-2.1536 -1.68116,-4.234 -2.08374,-6.4606 -1.57249,-8.6973 1.49487,-17.8917 7.01934,-24.60783 1.29596,-1.5755 2.89022,-2.8799 4.33533,-4.3198 1.57814,-1.0869 3.07909,-2.2954 4.73443,-3.2607 5.73491,-3.3442 12.51765,-5.2381 19.15618,-4.7271 5.05394,0.4341 4.43997,7.5814 -0.61397,7.1473 z"
       id="path3897"
       style="fill:#000000;fill-opacity:1" />
    <path
       style="fill:#000000;fill-opacity:1"
       id="path3923"
       d="m 299.61512,904.88186 c 1.68161,-5.9468 4.86142,-11.35783 7.69847,-16.81005 5.64903,-11.30043 9.45168,-23.37332 14.24564,-35.03796 2.981,-6.49125 5.39515,-13.2928 8.77719,-19.5978 3.1291,-4.77854 5.23343,-1.67968 6.96355,1.67917 0.007,0.0142 -0.24072,2.46649 -0.2516,2.74944 0.42896,5.55773 1.95046,10.98048 3.2697,16.37659 3.38194,12.71569 7.37322,25.24699 10.58924,38.00829 2.107,9.20463 3.67235,18.5174 4.38481,27.93282 0.13023,2.71252 0.23572,5.45789 -0.0242,8.16821 0.0222,-2.77009 0.1029,0.31502 -6.63148,-3.13287 -0.16255,-0.0832 0.21797,-0.29318 0.33244,-0.43547 1.06194,-1.32003 2.29299,-2.47046 3.48947,-3.6677 6.06214,-5.73639 12.29648,-11.28486 18.5892,-16.76598 10.99939,-9.09862 21.86035,-18.35048 32.51198,-27.85382 7.94096,-7.18857 16.13707,-14.09743 24.71483,-20.51464 2.16683,-1.09595 4.99308,-4.4311 7.35182,-5.15096 0.6144,-0.1875 1.26386,-0.23076 1.89579,-0.34615 1.02734,0.49866 2.26148,0.70174 3.08202,1.49597 2.29664,2.22299 0.16499,6.7628 -0.84707,9.03616 -3.12151,7.13331 -5.71822,14.4788 -8.4813,21.75427 -4.882,12.32665 -10.27047,24.4434 -15.4086,36.66361 -3.74243,8.91847 -7.18938,17.96837 -10.04467,27.21166 -0.19342,0.65706 -0.41214,1.30719 -0.58026,1.97118 -0.57405,2.26712 0.27219,1.71576 -0.22552,0.76484 -0.26524,-0.50677 -0.66264,-0.93251 -0.99397,-1.39876 -3.15559,-1.64235 -0.19114,-0.32202 -2.23315,-0.83853 -0.0491,-0.0124 0.84319,-0.22093 0.86961,-0.22735 1.70819,-0.41545 0.36746,-0.085 2.35321,-0.57853 6.70311,-1.75953 13.45763,-3.26172 20.26743,-4.54882 13.70241,-2.32312 27.59971,-3.05701 41.45374,-3.86445 12.04672,-0.73869 24.1022,-1.31553 36.16769,-1.62435 5.7604,-0.18789 11.51085,-0.0346 17.18938,0.97953 2.05367,0.47684 5.38185,0.67598 6.46196,2.92212 0.53727,1.11729 0.54477,2.41893 0.81716,3.6284 -0.42642,0.88125 -0.72951,1.83367 -1.27924,2.64374 -0.49848,0.73455 -2.23295,1.99824 -2.9467,2.5348 -2.28756,1.71968 -4.61397,3.38955 -6.92211,5.08128 -8.93195,6.85958 -17.99682,13.53148 -27.30903,19.86564 -9.34316,6.21461 -19.08413,11.79434 -28.71341,17.54634 -3.65762,2.50029 -7.9671,4.19894 -11.3433,7.11315 1.52614,-1.13077 1.26638,-2.74879 0.86245,-4.33185 -0.0632,-0.24755 -0.41006,-0.40721 -0.3869,-0.66164 0.003,-0.0285 0.32461,0.27508 1.18069,1.06776 3.43435,3.4261 4.49008,8.23995 5.60147,12.78675 1.77283,8.6398 3.74794,17.2236 6.11709,25.7198 3.04801,10.3372 6.93201,20.3978 10.35719,30.6112 2.59538,7.6366 4.57084,15.4518 6.57813,23.2557 0.84309,3.3898 1.58872,6.8093 2.47175,10.1884 0.48915,3.2574 0.51767,1.8903 -6.90498,4.6169 -0.19498,0.072 -2.9949,-2.9057 -4.19861,-3.9612 -5.55015,-4.6432 -11.32945,-9.0093 -17.09162,-13.3848 -7.17878,-5.5722 -14.86036,-10.4188 -22.486,-15.3396 -4.46512,-2.9451 -9.10803,-5.6138 -13.56385,-8.5723 1.62104,0.7047 -1.48753,-0.7123 -1.08785,-0.6024 0.42392,0.1165 0.81061,0.516 1.24356,0.4395 1.22573,-0.2166 2.41611,-0.6821 3.50819,-1.2793 0.36743,-0.201 0.31625,-0.9108 0.71726,-1.0315 0.27313,-0.082 -0.0731,0.5657 -0.10968,0.8486 -0.63364,5.7676 -1.9552,11.4087 -3.39449,17.0188 -2.6315,9.2298 -5.28517,18.441 -7.27644,27.8339 -1.63485,7.7228 -2.22727,15.5776 -1.74869,23.4463 0.38659,2.5139 0.40519,7.8797 1.92413,10.035 -0.0629,-0.4299 -0.0402,-0.5748 -0.72563,-0.8583 -2.04873,-0.8473 -2.83891,-0.6382 -4.6974,0.9568 -0.43386,0.3724 -0.46664,1.0448 -0.7324,1.551 -1.0602,-2.3409 -2.73328,-4.3431 -4.32222,-6.3373 -6.75554,-7.8823 -13.55742,-15.7218 -20.21551,-23.6887 -6.29337,-7.4934 -11.46663,-15.7398 -15.61941,-24.5755 -1.88475,-4.2483 -3.80214,-8.4776 -5.85405,-12.6452 -1.92401,-3.2425 0.53466,0.9647 -0.80636,-1.4921 -0.0224,-0.041 -0.12996,-0.1339 -0.10173,-0.097 0.17261,0.228 0.25802,0.602 0.53581,0.6702 1.62529,0.3989 3.36492,1.1418 4.97405,0.682 1.12819,-0.3223 1.47645,-1.824 2.21468,-2.736 0.0203,-0.076 0.0515,-0.3063 0.0607,-0.2282 0.31064,2.6156 -0.49362,5.8981 -0.93562,8.4465 -1.38835,8.9806 -3.29363,17.8675 -5.35875,26.7132 -2.49423,10.141 -5.45002,20.1538 -8.53451,30.1281 -1.68826,5.2552 -3.36319,10.5144 -5.04593,15.7713 -0.52513,4.3927 -7.40486,10.2488 -9.71951,1.1849 -0.2146,-0.8015 -1.43742,-1.9904 -2.13004,-2.8187 -4.93657,-6.042 -9.32908,-12.5023 -13.68579,-18.9671 -5.67559,-8.686 -11.28336,-17.4148 -17.03918,-26.0482 -3.76789,-5.6931 -7.58486,-11.353 -11.34476,-17.0513 -0.70853,-0.3319 -1.31866,-2.8085 -2.12858,-3.0641 -0.1702,-0.054 0.1798,0.3264 0.33151,0.4204 1.45524,0.9018 1.28353,0.7249 2.76519,0.7403 -0.005,0.062 0.0274,0.1399 -0.0137,0.187 -0.67742,0.7767 -1.46879,1.4473 -2.16625,2.206 -2.09924,2.2837 -4.11311,4.6454 -6.16148,6.9744 -6.4378,7.5627 -13.14924,14.8701 -20.10255,21.959 -6.71147,6.6917 -13.79481,12.9808 -20.9609,19.176 -3.77561,2.9514 -7.31032,6.2902 -11.55322,8.5753 -6.3281,2.1941 -7.76205,-2.2578 -8.48632,-7.2253 -0.82041,-5.8345 -0.79702,-11.7346 -0.58446,-17.6088 0.47517,-9.3454 2.19477,-18.5635 4.39278,-27.6401 1.34483,-5.4735 3.2716,-10.7566 5.58218,-15.887 1.08838,-2.1924 -0.11049,-0.7112 0.3063,0.3697 0.38273,0.9925 1.12798,1.8136 1.82036,2.6211 0.16739,0.1953 0.70568,0.063 0.70176,0.3206 -0.004,0.2363 -0.47157,0.031 -0.70736,0.047 -5.30755,0.2594 -10.61482,0.4636 -15.91743,0.8208 -10.93574,0.9879 -21.90993,1.2941 -32.88196,1.5336 -13.83258,0.2382 -27.65476,-0.3926 -41.44899,-1.3615 -8.79453,-0.6593 -17.63294,-1.3451 -26.28306,-3.1363 -1.45784,-0.3147 -5.93217,-1.07 -6.31566,-2.9794 -0.93031,-4.6321 -0.31232,-4.5228 2.01438,-6.3239 2.59367,-1.2745 4.91195,-2.9633 7.19963,-4.711 7.05789,-5.6076 14.00152,-11.358 20.94921,-17.1011 8.55678,-7.2024 17.68029,-13.6084 27.39225,-19.1393 5.75501,-3.2153 11.69364,-6.1304 17.18645,-9.7917 -1.4091,1.5738 1.93745,-1.4602 1.49278,-1.0461 -2.20544,2.0537 -1.25684,4.713 0.95813,6.1732 -3.53049,-0.3177 -6.72712,-1.8436 -9.85365,-3.4042 -9.47251,-5.4106 -18.48836,-11.5986 -27.50044,-17.73646 -9.73736,-6.4975 -18.75666,-13.9339 -26.99429,-22.23686 -4.52536,-4.62868 -8.86941,-9.42802 -13.30509,-14.14125 -0.68606,-0.98135 -3.84819,-3.18612 -3.91882,-4.39421 -0.0862,-1.47386 0.28924,-2.93855 0.43385,-4.40783 1.12413,-0.55744 2.1719,-1.30731 3.37239,-1.67233 0.56576,-0.17202 2.94955,0.34174 3.46578,0.46757 2.58016,0.62896 5.11593,1.51884 7.647,2.31252 9.83145,3.02382 19.91803,5.08778 29.97052,7.21557 8.46238,1.82682 16.94246,3.56533 25.48253,4.98882 1.71631,0.21796 1.87433,0.27328 3.44054,0.36098 0.25532,0.0143 0.51132,0.0218 0.76698,0.0165 0.0411,-8.6e-4 0.15875,-0.0421 0.11825,-0.035 -1.75751,0.30647 -0.8084,0.0475 -2.81748,1.95854 -0.10028,0.74369 -0.20056,1.48738 -0.30084,2.23107 0.0156,0.0993 0.11153,0.375 0.0469,0.29797 -0.73225,-0.87296 -1.79289,-3.51518 -2.28976,-4.54784 -2.83758,-6.10616 -4.81758,-12.55369 -6.65415,-19.01633 -3.28309,-11.62463 -6.05212,-23.38588 -7.86568,-35.32971 -1.29137,-8.29006 -0.65462,-16.61157 0.57825,-24.84971 0.81013,-4.64137 2.10172,-9.16604 3.52849,-13.64874 0.77493,-1.90072 1.25605,-4.54912 3.05341,-5.83604 0.64226,-0.45986 1.41643,-0.69971 2.12465,-1.04957 0.75158,-0.0157 1.50752,-0.12954 2.25474,-0.0472 3.21651,0.35456 8.05361,3.49451 10.71465,5.14846 7.43895,5.31575 14.14832,11.56395 20.99055,17.60737 6.52094,5.70776 12.89677,11.62726 18.713,18.05969 1.24642,1.33618 2.47997,2.68604 3.67796,4.0661 0.16398,0.18891 0.31587,0.38818 0.48183,0.57536 0.0228,0.0257 0.11218,0.0793 0.0828,0.0615 -0.54783,-0.33208 -1.09231,-0.66966 -1.63847,-1.0045 -1.57063,0.72605 -3.14127,1.45209 -4.7119,2.17813 -0.0698,0.17504 -0.12049,0.69127 -0.20942,0.52513 -0.18191,-0.33986 0.63534,-6.56642 0.68437,-6.97568 0.84408,-9.29303 2.66606,-18.43239 4.79588,-27.50314 2.54498,-9.8223 5.71285,-19.46469 8.37176,-29.25508 0.65656,-1.7131 1.32985,-8.27641 2.66827,-9.52232 0.8965,-0.83453 2.05371,-1.33523 3.08057,-2.00285 1.17204,0.29237 2.4147,0.38112 3.51613,0.87711 0.87944,0.39603 2.52315,2.37495 3.14715,3.07938 1.74989,1.97546 3.48937,3.94788 5.29076,5.87715 5.79086,5.55988 10.72706,11.8798 15.64682,18.19662 7.42573,10.07587 16.71786,18.47827 25.91296,26.88072 4.59552,4.14345 9.25086,8.22618 13.6105,12.62205 2.0694,2.08661 4.18328,3.91332 5.15641,6.79783 0.38631,1.1451 0.29543,2.3989 0.44315,3.59834 0.16577,0.15737 -0.0568,0.39181 -0.22255,0.23444 l 0,0 c -1.20208,-0.082 -2.44434,0.0731 -3.60622,-0.24586 -2.94511,-0.8085 -4.77901,-2.74426 -7.02994,-4.66044 -4.70308,-4.00365 -9.24261,-8.19022 -13.8427,-12.31039 -9.58587,-8.6833 -19.05195,-17.5986 -26.76088,-28.04592 -4.68729,-6.18522 -9.47385,-12.28341 -14.99109,-17.76422 -1.54876,-1.66092 -2.46675,-2.62008 -3.94293,-4.29548 -0.83625,-0.94911 -1.69819,-1.87676 -2.49794,-2.85682 -0.0929,-0.11386 -0.36001,-0.3562 -0.2158,-0.38442 0.67043,-0.13118 1.36617,0.0171 2.04925,0.0257 0.66901,-0.58957 1.37896,-1.13571 2.00702,-1.76872 0.0664,-0.0669 0.0562,-0.37092 0.027,-0.28134 -0.84229,2.58748 -0.66805,5.46712 -1.75282,8.00424 -2.55861,9.73629 -5.86094,19.25754 -8.3442,29.01572 -2.06035,8.74947 -3.69281,17.57891 -4.53567,26.53689 -0.17961,1.94115 -0.38377,3.88216 -0.53434,5.82595 -0.0388,0.50151 -0.11449,2.52637 -0.39383,2.7579 -1.43204,1.18697 -3.26922,1.77504 -4.90383,2.66256 -0.66973,-0.36781 -1.37036,-0.68423 -2.00917,-1.10344 -1.59868,-1.04907 -2.68906,-4.07068 -4.24792,-5.17723 -5.69877,-6.17901 -11.73461,-11.99922 -18.07623,-17.52171 -6.54374,-5.77978 -12.95755,-11.76989 -20.02038,-16.91537 -2.1618,-1.42646 -2.12491,-1.48998 -4.29254,-2.61271 -1.75271,-0.90782 -1.23033,-0.57574 -2.78846,-1.25115 -0.12753,-0.0553 -0.45749,-0.081 -0.37123,-0.18994 0.15232,-0.19243 0.46709,-0.15082 0.70063,-0.22623 0.9081,-0.66228 0.89736,-0.4417 1.25778,-1.19304 0.0791,-0.16486 -0.15837,0.13899 -0.38763,0.8349 -0.11191,0.33968 -0.19625,0.68783 -0.29437,1.03175 -0.14355,0.4262 -0.28709,0.85239 -0.43064,1.27859 -1.30508,4.09595 -2.53634,8.23417 -3.16053,12.49778 -1.20161,7.43926 -1.70089,14.94553 -0.57678,22.44364 1.81598,11.60567 4.54509,23.02803 7.68163,34.34573 1.75934,6.04908 3.57449,12.10362 6.29969,17.80385 0.38895,0.85522 2.74192,5.00628 2.80788,5.63486 0.10374,0.98865 -0.0719,1.98685 -0.10787,2.98028 -0.70065,0.77141 -1.2693,1.68761 -2.10197,2.31424 -1.89006,1.42238 -6.0597,0.16057 -8.10542,0.006 -8.6514,-1.44409 -17.23349,-3.27303 -25.83317,-4.9909 -10.28708,-2.17771 -20.59509,-4.35455 -30.66045,-7.42711 -2.34262,-0.70957 -4.67607,-1.46383 -7.03518,-2.11791 -0.34112,-0.0946 -1.29083,-0.13284 -1.00534,-0.34213 0.7596,-0.55685 1.56254,-1.05204 2.34381,-1.57806 0.26238,-7.02404 0.99275,-2.56234 -0.24133,-4.48598 -0.0633,-0.0987 0.16216,0.1696 0.2495,0.24776 1.00966,0.90353 2.02022,1.8038 2.93064,2.81223 4.37456,4.64951 8.60281,9.43636 13.06922,14.00058 2.36376,2.3199 4.71265,4.67954 7.18896,6.88141 5.87996,5.22831 12.26713,9.84011 18.7558,14.27448 8.71499,5.93621 17.41954,11.93361 26.60145,17.13391 2.47231,1.2583 4.93848,2.4909 7.74434,2.7439 4.02166,1.143 4.85051,2.8412 3.61769,6.8866 -0.40532,1.33 -2.46414,2.1296 -3.36501,2.9878 -5.80518,3.3337 -11.61626,6.6527 -17.5715,9.7174 -9.32157,5.2963 -18.1446,11.3595 -26.23646,18.4203 -7.03494,5.7539 -13.99604,11.5971 -21.08213,17.2882 -2.48863,1.964 -5.01065,3.9417 -7.88852,5.3116 2.83347,-3.2084 1.16298,-4.6875 -1.02171,-6.3651 -0.69034,-0.5301 2.9543,1.453 2.52204,0.6763 8.43158,1.2961 16.88544,2.4039 25.40504,2.9627 13.55905,0.954 27.14253,1.6509 40.74091,1.4686 10.8382,-0.1144 21.67339,-0.4986 32.48304,-1.3195 5.37853,-0.3615 10.75819,-0.6389 16.14511,-0.8328 0.95187,-0.024 2.88726,-0.1781 3.66069,0.3733 3.39013,2.4172 3.17959,4.3705 1.71778,7.4955 -2.19859,4.5982 -3.81647,9.4607 -5.0649,14.397 -2.0204,8.5791 -3.59533,17.2722 -4.01538,26.0941 -0.19936,5.3395 -0.3261,10.7025 0.4837,16.0043 0.0815,0.4279 0.15114,0.8583 0.24461,1.2838 0.0474,0.2159 0.2909,0.4489 0.17778,0.6388 -0.0842,0.1414 -0.21111,-0.2614 -0.3526,-0.3453 -0.99011,-0.5874 -2.41822,-1.5425 -3.61378,-0.6393 1.12216,-0.5782 2.04438,-1.3741 3.04099,-2.1461 2.3031,-1.784 4.62708,-3.5443 6.78242,-5.51 6.97933,-6.0303 13.68365,-12.386 20.275,-18.8349 6.83275,-6.9602 13.25529,-14.2877 19.50318,-21.7759 3.08986,-3.5737 1.64042,-1.9419 4.59794,-5.202 1.66928,-1.84 3.34691,-3.8979 5.34496,-5.4052 0.645,-0.4866 1.36638,-0.8627 2.04956,-1.294 0.98239,-0.2181 1.94139,-0.6873 2.94716,-0.6544 3.71575,0.1216 5.60325,3.3145 7.3797,6.0359 3.76349,5.7038 7.50645,11.4211 11.30321,17.103 5.62155,8.6892 11.18719,17.4143 16.78351,26.1196 4.17135,6.274 8.40447,12.5129 13.13869,18.3823 1.59535,2.0533 3.51443,4.0766 3.95652,6.7395 -0.94293,-2.7101 -0.31686,-1.2724 -7.5539,-1.7178 -0.37729,-0.023 -0.90019,1.6763 -0.43686,0.5746 0.13857,-0.3295 0.26912,-0.6623 0.40368,-0.9934 1.67709,-5.2389 3.31584,-10.4897 4.99873,-15.7269 3.09088,-9.75 5.89539,-19.5912 8.24451,-29.5483 2.07416,-8.6464 3.81343,-17.3541 5.33433,-26.1143 0.45881,-2.8362 0.90438,-5.6597 0.90248,-8.5387 0.7812,-1.1217 1.06242,-2.8886 2.3436,-3.365 4.39122,-1.633 6.17113,1.1606 7.56411,4.108 2.17694,4.2027 3.83256,8.6605 5.91326,12.9107 3.83895,8.1994 8.59892,15.8677 14.3179,22.9093 6.42534,8.2301 13.37079,16.019 19.95381,24.1212 2.37882,3.154 4.94891,6.3466 5.8576,10.2789 0.0793,1.3329 0.35888,2.8697 -0.64065,4.0465 -2.70751,3.1874 -6.18064,2.2432 -8.21601,-0.7592 -2.16043,-4.1268 -2.46022,-8.8799 -2.98317,-13.4373 -0.50204,-8.5868 -0.23327,-17.1826 1.49828,-25.6411 1.90604,-9.5517 4.44583,-18.9396 7.18614,-28.2842 1.36655,-5.3143 2.68051,-10.6541 3.21496,-16.1297 0.18638,-1.1775 0.38397,-3.2592 1.30921,-4.0547 2.75471,-2.3686 5.00467,-2.2383 7.54987,-0.434 4.70603,2.6653 9.04715,5.9221 13.67501,8.7164 7.8509,4.9891 15.61173,10.1375 22.97302,15.8335 5.92661,4.5006 11.89646,8.9564 17.57016,13.7765 1.35985,1.2036 1.62599,1.4138 2.83607,2.5657 2.63189,2.5054 -0.0979,1.3499 -5.67139,5.1344 -0.73746,-3.395 -1.7888,-6.7246 -2.55135,-10.1149 -1.78892,-7.6159 -3.88171,-15.1562 -6.34979,-22.582 -3.46965,-10.3508 -7.37363,-20.5502 -10.63316,-30.9706 -2.44445,-8.5846 -4.46639,-17.2736 -6.22931,-26.0233 -0.69168,-2.8715 -1.25953,-5.9699 -3.03324,-8.4048 -3.21747,-3.00347 -4.83262,-5.42297 -1.2204,-9.3805 3.83818,-3.04525 8.31133,-5.21242 12.41562,-7.86111 9.51112,-5.58986 19.01711,-11.20189 28.17868,-17.3561 9.21633,-6.26538 18.21274,-12.82778 27.03761,-19.63438 2.26731,-1.6928 4.5526,-3.3548 6.83993,-5.01974 0.34649,-0.25221 0.67188,-0.53413 1.03039,-0.76894 0.0502,-0.0329 0.18966,-0.0817 0.17848,-0.0228 -0.10196,0.53762 -0.31487,1.04813 -0.47231,1.5722 0.30744,0.93862 0.43384,1.95743 0.92231,2.81587 0.24314,0.42729 0.76872,0.61584 1.18196,0.88216 0.0471,0.0303 0.20613,0.0283 0.16764,-0.0124 -0.51624,-0.54628 -1.57827,-0.40519 -2.18295,-0.74684 -5.09746,-0.93465 -10.2968,-1.03657 -15.4672,-0.91032 -11.97448,0.3056 -23.93569,0.91168 -35.89139,1.64436 -13.5024,0.78674 -27.05637,1.43292 -40.41502,3.67479 -6.68723,1.21817 -13.29863,2.72636 -19.86997,4.46501 -1.75283,0.39211 -4.13735,1.37383 -5.94718,0.96513 -0.75621,-0.17078 -1.433,-0.59213 -2.1495,-0.88819 -0.51233,-0.60855 -1.1299,-1.14221 -1.537,-1.82564 -1.43183,-2.40378 0.003,-6.2775 0.60936,-8.68298 3.21999,-9.35973 6.44697,-18.71954 10.40034,-27.80451 5.10895,-12.14947 10.54687,-24.16031 15.4092,-36.41217 2.89882,-7.34358 5.6421,-14.76207 9.02808,-21.9004 0.21036,-0.48934 0.41989,-0.97904 0.63109,-1.46802 1.12482,-2.6043 0.13716,-0.52651 1.49358,0.42608 0.7759,0.54491 1.77372,0.6706 2.66059,1.0059 0.37988,-0.11483 0.76618,-0.21026 1.13965,-0.34449 0.042,-0.0151 -0.0928,-0.0371 -0.13287,-0.0174 -0.25034,0.12318 -0.48149,0.28243 -0.71528,0.43471 -1.78871,1.16501 -3.39493,2.5675 -5.15123,3.78014 -8.31047,6.44726 -16.5188,13.02283 -24.26833,20.14552 -10.6354,9.57224 -21.42106,18.96458 -32.46479,28.06486 -6.17979,5.38101 -12.20468,10.9315 -18.191,16.52635 -0.96525,0.93082 -1.89727,1.85985 -2.75882,2.88728 -0.13338,0.15905 -0.17761,0.5482 -0.37818,0.49473 -7.09435,-1.8913 -6.98503,-0.04 -6.89313,-2.96437 0.93397,-1.63741 0.17831,-4.46306 0.35138,-6.19196 -0.67101,-8.99939 -2.10901,-17.9425 -4.25146,-26.7091 -3.15218,-12.7853 -7.16943,-25.32588 -10.41351,-38.0867 -1.47343,-6.0351 -3.16628,-12.17685 -3.33768,-18.41663 0.0256,-0.44264 0.0361,-0.8864 0.0769,-1.32791 0.26508,-2.87346 0.30513,1.27545 2.80496,1.96979 0.021,0.006 4.75215,-1.77485 3.32822,-1.23898 -3.7512,5.74439 -6.18929,12.27111 -9.11613,18.43919 -4.91135,11.78825 -9.60972,23.69892 -15.41738,35.0827 -2.87673,5.2693 -6.02222,10.36497 -9.2343,15.42739 -0.69471,2.0507 -3.59484,1.06824 -2.90013,-0.98247 z"
       inkscape:connector-curvature="0" />
    <rect
       y="1244.4031"
       x="68.384537"
       height="357.0632"
       width="496.59576"
       id="rect3931"
       style="fill:#ff0000;fill-opacity:1"
       inkscape:export-filename="/home/turupawn/Projects/Fighter/assets/misc/ko/2.png"
       inkscape:export-xdpi="90"
       inkscape:export-ydpi="90" />
    <path
       style="fill:#000000;fill-opacity:1"
       id="path3933"
       d="m 242.52091,1366.6665 c -1.31675,5.3376 -0.57752,10.9808 -0.32343,16.3959 0.82182,21.3715 -1.12751,42.7102 -3.20923,63.9553 -0.59509,4.7596 -1.58211,14.8168 -3.16049,19.6694 -4.66273,14.3352 -2.83657,0.6309 -3.85951,12.2161 -0.0161,0.228 -0.33856,0.2052 -0.32244,-0.023 l 0,0 c 0.69404,-13.0484 0.30684,4.3719 -1.762,-12.7928 -0.57398,-4.7623 0.46528,-15.4119 0.7915,-19.8508 1.87899,-20.9082 4.00698,-41.8773 3.27191,-62.8994 -0.10578,-5.235 -0.77845,-12.8673 1.03542,-17.8983 0.68981,-1.9133 1.11601,-2.1991 2.30292,-3.5841 3.40225,-3.702 8.63761,1.1095 5.23535,4.8115 z"
       inkscape:connector-curvature="0" />
    <path
       style="fill:#000000;fill-opacity:1"
       id="path3935"
       d="m 235.92588,1423.1296 c 11.28284,-10.0277 25.41782,-16.2991 38.9647,-22.6157 11.54806,-4.8949 23.18544,-9.7268 35.23342,-13.2835 3.45688,-1.0205 6.93366,-2.0157 10.47784,-2.6716 34.7438,-6.4302 -11.86881,3.7792 16.46538,-2.6031 0.21833,-0.068 0.31401,0.2411 0.0957,0.3087 l 0,0 c -15.8604,6.329 3.10511,-1.617 -14.82997,7.3489 -3.18055,1.59 -6.49614,2.8958 -9.7776,4.2655 -11.36735,4.7445 -22.97955,8.9104 -34.14542,14.1371 -13.04472,6.1579 -25.963,12.5676 -37.92295,20.6915 -3.9441,3.2251 -8.50518,-2.3527 -4.56108,-5.5778 z"
       inkscape:connector-curvature="0" />
    <path
       style="fill:#000000;fill-opacity:1"
       id="path3937"
       d="m 254.00854,1425.2441 c 8.5328,5.3479 15.39469,12.9336 22.29963,20.1569 5.33346,6.2048 11.15799,12.0564 16.07387,18.616 1.43235,1.9112 3.00563,3.7741 3.99584,5.9476 2.00615,7.9268 0.64139,4.3928 3.76401,10.7237 0.12726,0.1899 -0.14126,0.3699 -0.26851,0.18 l 0,0 c -8.91323,-10.0773 3.8471,3.6629 -8.57433,-6.9831 -1.74976,-1.4996 -3.08794,-3.4222 -4.58783,-5.1718 -5.22701,-6.0971 -10.20369,-12.4194 -15.83837,-18.16 -6.48603,-6.9012 -12.98085,-13.8695 -20.47598,-19.7034 -3.96395,-2.5539 -0.35228,-8.1598 3.61167,-5.6059 z"
       inkscape:connector-curvature="0" />
    <path
       style="fill:#000000;fill-opacity:1"
       id="path3939"
       d="m 373.26931,1426.5384 c -5.27121,0.4734 -10.5537,1.7198 -15.09629,4.5477 -1.28126,0.7976 -2.43078,1.7896 -3.64616,2.6844 -1.08157,1.1433 -2.27855,2.1875 -3.2447,3.4299 -4.01414,5.1617 -6.23505,12.0655 -4.69946,18.5689 0.3587,1.5192 1.12565,2.9119 1.68847,4.3678 0.9656,1.2427 1.76069,2.6391 2.8968,3.7281 5.91516,5.6699 15.09838,7.0132 22.92578,6.5128 2.52859,-0.1617 5.01753,-0.7099 7.52629,-1.0649 2.49792,-0.7255 5.05957,-1.2595 7.49376,-2.1764 8.71994,-3.2845 17.73143,-9.2052 21.79109,-17.9282 0.81634,-1.7541 1.12789,-3.7015 1.69184,-5.5522 0.009,-1.837 0.29345,-3.6936 0.0261,-5.511 -0.55555,-3.7766 -2.38256,-7.4845 -4.81019,-10.3933 -4.40391,-5.277 -10.83671,-8.5228 -16.63507,-11.9389 -2.23255,-1.2235 -4.4651,-2.447 -6.69765,-3.6704 -0.2245,-0.043 -0.16375,-0.3605 0.0607,-0.3175 l 0,0 c 2.81034,-0.2586 5.62068,-0.5171 8.43102,-0.7757 2.82614,0.6228 5.7777,0.8285 8.47841,1.8683 10.43574,4.0175 18.83158,14.2976 19.92778,25.5193 0.2614,2.6759 -0.28407,5.3697 -0.42611,8.0546 -0.9229,2.5305 -1.51897,5.2055 -2.76869,7.5916 -5.41859,10.3459 -16.091,17.2468 -26.79662,21.0549 -2.83862,1.0097 -5.80477,1.6168 -8.70715,2.4252 -2.94148,0.3448 -5.86524,0.9145 -8.82443,1.0344 -10.44346,0.4232 -21.87197,-2.0257 -29.20732,-10.0528 -1.57075,-1.7189 -2.61721,-3.852 -3.92582,-5.7779 -0.69458,-2.1536 -1.68116,-4.234 -2.08374,-6.4606 -1.57249,-8.6973 1.49487,-17.8917 7.01934,-24.6078 1.29596,-1.5755 2.89022,-2.8799 4.33533,-4.3198 1.57814,-1.0869 3.07909,-2.2954 4.73443,-3.2607 5.73491,-3.3442 12.51765,-5.2381 19.15618,-4.7271 5.05394,0.4341 4.43997,7.5814 -0.61397,7.1473 z"
       inkscape:connector-curvature="0" />
    <path
       inkscape:connector-curvature="0"
       d="m 351.46673,1358.3798 c 7.37267,-6.4491 14.97367,-12.6346 22.43493,-18.9826 12.43419,-10.617 24.5539,-21.5928 36.82305,-32.3982 7.13364,-6.2603 14.21796,-12.579 21.41931,-18.7614 2.01379,-1.709 3.97471,-3.6027 6.9387,-0.327 1.25262,1.3843 -1.23805,6.4778 -1.79437,7.9045 -3.26423,10.1196 -5.32411,20.5813 -7.84977,30.9012 -3.51748,13.1407 -7.51562,26.1529 -11.61062,39.1241 -2.39682,7.8211 -5.05268,15.5524 -7.96923,23.193 -0.0183,0.045 -1.21188,2.986 -1.34632,3.2948 -0.12368,0.284 -0.27375,0.556 -0.39953,0.8392 -0.0496,0.1115 -0.14725,0.4639 -0.126,0.3438 0.49194,-2.7833 1.2054,-0.1442 -3.47516,-4.4089 -0.25836,0.057 -0.57654,0.3462 -0.77509,0.1713 -0.16642,-0.1466 0.36813,-0.2477 0.55771,-0.3628 0.32866,-0.1995 0.65483,-0.4045 0.99659,-0.5807 1.80772,-0.9315 3.71885,-1.6319 5.61962,-2.3416 10.19959,-3.2253 20.8593,-4.4722 31.45578,-5.5649 16.27294,-1.5898 32.63467,-1.1892 48.94716,-0.6535 10.17205,0.2578 20.32607,0.8762 30.47729,1.5397 2.73604,0.3659 5.29372,0.758 4.9213,4.9538 -0.18488,2.0829 -4.29093,3.1403 -5.79868,3.7304 -5.32965,2.0268 -10.49103,4.4597 -15.65009,6.8792 -9.44964,4.5765 -18.70902,9.5308 -27.87311,14.6514 -9.35587,5.1746 -18.49158,10.7266 -27.40945,16.621 -4.81287,3.3691 -9.75537,6.5865 -14.21262,10.4274 -0.8418,0.753 -1.58729,1.5827 -2.10754,2.5899 -0.26538,0.5138 -0.33345,0.8179 -0.25236,0.8321 0.0867,0.015 0.10236,-0.1433 0.15354,-0.2149 0.0191,-0.1445 0.003,-0.2981 0.0574,-0.4334 0.12119,-0.3025 0.50237,0.417 0.72985,0.6502 0.3836,0.3935 0.78004,0.7742 1.166,1.1653 1.25984,1.2766 2.50767,2.5651 3.76189,3.8473 7.0404,6.6457 13.44328,13.8427 19.27834,21.5586 6.39943,9.1889 12.30752,18.6998 18.69463,27.8981 4.64484,6.2119 8.90167,12.6452 12.03271,19.7527 1.7728,4.0881 2.62087,8.4423 3.32907,12.8121 0.19927,3.2595 -0.33987,6.1837 -4.37865,6.4007 -0.54419,0.029 -1.07091,-0.2028 -1.60637,-0.3043 -4.47546,-1.671 -8.73059,-3.9047 -12.99221,-6.0529 -8.32677,-3.873 -16.17062,-8.6262 -23.93392,-13.5038 -8.08872,-5.1656 -15.98649,-10.6218 -24.08627,-15.77 -3.86975,-2.5103 -7.97167,-4.6254 -12.06802,-6.7336 -2.12269,-1.1429 -0.5678,-0.029 0.55459,-0.3963 1.72975,-0.5661 1.66854,-0.891 2.45721,-2.1839 0.0647,-0.2451 0.0613,-0.5189 0.1683,-0.1581 0.44829,1.5121 0.67266,3.0735 0.92925,4.626 0.85228,5.2749 1.0977,10.607 1.26931,15.9384 0.13976,6.8686 -0.29218,13.7311 -0.70309,20.5837 -0.3869,6.5903 -1.08839,13.1586 -2.00631,19.695 -0.57382,3.9088 -1.33526,7.7857 -2.05792,11.6685 -0.32728,1.8974 -0.50048,3.7817 -1.10045,5.6144 -0.48447,0.6149 -0.77559,1.4531 -1.45342,1.8448 -5.01998,2.9004 -8.83693,-2.5514 -11.73476,-5.7823 -6.5985,-7.3095 -12.62234,-15.1076 -18.30904,-23.1392 -5.32375,-7.7935 -10.04788,-15.9686 -15.0832,-23.9472 -2.58143,-4.0941 -5.09117,-8.2475 -7.95889,-12.1514 -0.12562,-0.1637 -0.23262,-0.3435 -0.37686,-0.491 -0.22435,-0.2294 0.47175,0.4984 0.78795,0.5531 1.07016,1.4286 1.58609,-0.5138 2.38631,-0.4091 0.14507,0.019 -0.0789,0.2818 -0.11842,0.4226 -1.71212,4.4204 -2.17194,9.2185 -2.71008,13.8931 -0.90641,9.3126 -2.63637,18.4952 -4.64635,27.6227 -1.89805,8.2223 -3.52823,16.5107 -5.79397,24.6424 -1.61709,5.4842 -3.6164,10.8495 -6.14088,15.9798 -1.01639,1.5792 -3.12566,5.8867 -4.81548,6.778 -0.7351,0.3878 -1.5672,0.5539 -2.3508,0.8308 -1.18487,-0.9844 -2.64733,-1.7082 -3.5546,-2.9531 -0.59152,-0.8116 0.35291,-3.4666 0.4441,-4.4333 0.11455,-1.2145 0.0443,-1.3315 -0.0741,-2.5429 -2.22375,-6.3742 -6.98609,-11.5937 -11.25441,-16.6888 -6.00023,-7.1845 -12.40174,-14.0187 -17.59228,-21.8285 -3.62012,-5.6132 -5.52912,-12.0098 -7.784,-18.2273 -1.36349,-4.3214 -3.61675,-8.2079 -6.2961,-11.8296 -0.59453,-0.816 -0.91907,-1.3912 -1.65709,-2.0231 -0.0803,-0.069 -0.33823,-0.2222 -0.28989,-0.1283 0.29632,0.5758 1.18273,0.5749 1.72708,0.5796 -2.15179,1.6807 -4.22197,3.4568 -6.24853,5.2888 -6.46664,5.9481 -13.02694,11.7912 -19.63049,17.5866 -7.81037,6.875 -15.56756,13.8063 -23.51459,20.5235 -3.83729,3.1118 -7.85703,6.0016 -11.39013,9.4648 -1.38477,1.373 -2.61344,2.8918 -3.86401,4.3853 -2.82436,3.5138 -0.80372,2.165 -7.61297,-2.77 1.24627,-2.1212 1.73258,-4.5625 2.16328,-6.9533 0.93137,-6.7572 -0.0932,-13.588 -0.88917,-20.3069 -1.2924,-8.1166 -1.69266,-15.6795 -0.50977,-23.8154 0.8633,-4.6688 2.20193,-9.2539 3.97012,-13.6598 0.34284,-0.9189 0.79137,-1.7857 1.09342,-2.7191 0.0462,-0.1429 0.1808,-0.5725 0.12667,-0.4324 -0.31242,0.8084 -0.15641,0.7907 -0.11284,1.9455 2.03853,3.1772 0.20142,0.7849 1.76733,2.1675 0.0296,0.026 -0.0768,0.027 -0.11606,0.023 -0.26828,-0.026 -0.53327,-0.079 -0.80092,-0.1106 -0.4437,-0.052 -0.88858,-0.094 -1.33287,-0.1412 -0.5895,-0.07 -1.17901,-0.1401 -1.76851,-0.2102 -6.15879,-0.8251 -12.36415,-1.16 -18.56381,-1.4998 -8.23663,-0.5126 -16.4842,-0.818 -24.73336,-1.0336 -6.55754,-0.092 -13.11541,-0.01 -19.66726,-0.3171 -8.02173,-0.704 -16.00855,-1.6972 -24.04228,-2.297 -8.04707,-0.619 -16.11705,-0.5084 -24.17793,-0.6296 -5.17347,0.026 -6.68589,0.6887 -5.61377,-7.6717 0.0462,-0.3605 3.11006,-1.0596 3.4884,-1.1548 4.60216,-0.8857 8.31477,-3.5353 11.96496,-6.3109 7.54462,-6.5063 15.12871,-12.9566 22.88211,-19.2142 8.94434,-7.0996 17.77076,-14.3397 26.91438,-21.1839 3.72948,-2.5532 7.32631,-5.4194 11.40314,-7.4222 -2.90862,1.5901 0.45173,-0.4983 1.85711,7.5108 0.0684,0.3899 -0.79278,0.017 -1.18737,-0.014 -1.74188,-0.1376 -3.28637,-0.6883 -4.91168,-1.29 -5.3625,-2.1743 -9.73638,-6.0079 -14.17442,-9.607 -5.6838,-4.8978 -11.93102,-9.0642 -18.06553,-13.3615 -4.94514,-3.6252 -9.59371,-7.6332 -14.71558,-11.0124 -2.92051,-1.8355 -6.07355,-3.2543 -8.96608,-5.1329 -1.91036,-1.3561 -3.66896,-2.9239 -5.08826,-4.7902 -0.26862,-0.5679 -0.92435,-1.0867 -0.80587,-1.7036 0.3199,-1.6656 0.88559,-3.4135 2.0292,-4.666 1.08764,-1.1912 7.97382,-0.148 9.46609,-0.026 8.89028,0.7175 17.64962,2.3804 26.40743,3.9996 9.7995,2.0578 19.79896,2.4246 29.77272,2.6062 3.11743,0.069 6.23601,0.05 9.35359,0.078 0.46864,0 0.93684,0.047 1.40545,0.039 0.10372,-0 0.3942,-0.1176 0.30408,-0.066 -0.92686,0.5283 -1.88364,1.0023 -2.82546,1.5034 0.5853,5.1036 2.12807,6.5013 -0.63847,4.8723 -1.6668,-0.9815 -2.98005,-2.145 -4.35063,-3.5017 -3.60155,-4.303 -5.57048,-9.6681 -7.70154,-14.7899 -3.38281,-8.8497 -7.0228,-17.5781 -11.20898,-26.0781 -4.2857,-8.0781 -8.45673,-16.2039 -11.95667,-24.6565 -1.80703,-4.5698 -3.43573,-9.2065 -5.36708,-13.7265 -0.37399,-1.2075 -1.94456,-3.9983 -1.75356,-5.2811 0.161,-1.0813 0.63368,-2.0927 0.95052,-3.139 1.038,-0.5276 1.99599,-1.2574 3.11401,-1.5826 0.84509,-0.2459 2.8194,0.2853 3.65736,0.4857 2.34922,0.5618 4.68069,1.2031 7.0189,1.8083 9.31259,2.1518 18.34437,5.2437 27.29526,8.5562 11.52096,4.5569 23.20344,8.6659 34.98244,12.4991 6.27254,2.0988 12.68422,3.917 18.64076,6.8369 4.89873,2.6787 4.98718,7.9575 -1.06918,9.4801 -3.01398,0.8198 -5.50197,0.3397 -8.32757,-0.8819 -4.79517,-3.004 -7.47665,-7.9463 -9.73411,-12.9558 -2.92087,-7.3786 -3.32592,-15.2174 -2.91486,-23.0424 0.59301,-7.0225 3.11537,-13.5575 5.98938,-19.9144 2.02617,-4.3125 4.04061,-8.6306 6.0854,-12.9343 1.08241,-1.6637 1.69807,-4.3099 3.5685,-5.3666 0.80122,-0.4526 1.7347,-0.6149 2.60204,-0.9223 0.86049,0.177 1.75797,0.2251 2.58147,0.5311 2.1611,0.803 6.33984,5.4574 7.97969,7.1126 6.33504,6.6593 12.469,13.505 18.65697,20.3003 7.39286,8.0289 14.81,16.035 22.17754,24.0871 3.92768,4.3619 8.08687,8.5116 12.44016,12.4478 1.6124,1.4033 -0.59579,-0.8751 -2.53825,-0.181 -3.21758,1.1498 -3.26727,4.947 -3.00937,0.9578 0.10063,-6.7794 1.68789,-13.3531 3.80423,-19.752 3.51999,-8.957 8.19092,-17.3881 12.2348,-26.1101 2.85282,-6.3677 4.99213,-13.0076 6.45604,-19.823 0.32021,-2.604 0.92936,-5.053 2.30898,-7.289 3.21464,-2.2693 2.46411,-2.7382 7.13102,0.226 0.475,0.3017 1.53936,4.4799 1.76916,5.2075 1.72444,5.0429 3.57754,10.0425 5.46421,15.0271 2.90562,8.0606 6.4503,15.8602 10.00011,23.6505 4.32736,9.4141 7.47048,19.3041 11.18124,28.9651 2.08333,5.7763 5.30593,11.082 7.33854,16.8695 0.89085,2.789 0.88161,5.408 -0.39638,8.0248 -2.19397,3.0603 -2.90245,1.4253 -4.82017,-1.0415 -0.20313,0.1048 -0.35133,-0.1824 -0.1482,-0.2872 l 0,0 c -0.28932,-0.856 -1.46343,-4.5913 -2.36665,-2.9183 -0.47759,1.4335 0.27088,-0.1923 -0.13731,-0.9852 -2.05465,-5.7052 -5.25484,-10.9385 -7.26461,-16.6694 -3.65139,-9.5141 -6.7908,-19.2281 -10.96752,-28.5349 -3.57995,-8.0024 -7.17052,-16.0078 -10.11681,-24.2719 -1.79711,-5.1437 -3.78539,-10.2172 -5.48865,-15.3937 -0.17991,-0.5714 -1.11576,-2.8637 -1.04296,-3.4841 0.0154,-0.131 0.12028,0.2664 0.24433,0.3112 1.44037,0.5199 2.85717,1.4068 4.38782,1.3609 0.83312,-0.025 1.3073,-1.0344 1.96095,-1.5516 0.0505,-0.1032 0.0401,-0.2818 0.15167,-0.3097 0.0727,-0.018 -0.0673,0.2359 -0.22646,0.8763 -0.32206,1.2963 -0.40693,2.6327 -0.72593,3.9309 -1.50628,7.4523 -3.96014,14.6817 -7.04999,21.6263 -3.8629,8.4565 -8.4616,16.5727 -11.88568,25.2218 -1.84969,5.6603 -3.25159,11.4108 -3.32465,17.4051 -0.002,0.3293 0.0333,2.9949 -0.16069,3.3025 -0.88308,1.4006 -1.76602,3.0319 -3.25827,3.7493 -2.06578,0.9932 -3.96272,-0.6945 -5.33416,-1.8275 -4.42309,-4.1956 -8.36661,-8.8688 -12.58429,-13.2644 -7.37184,-8.0568 -14.76382,-16.0947 -22.11468,-24.1704 -6.12346,-6.7245 -12.15583,-13.5342 -18.41347,-20.1344 -1.49637,-1.5478 -2.98901,-3.0944 -4.5872,-4.5388 -0.28199,-0.2548 -1.17937,-0.7777 -0.80081,-0.8117 0.44726,-0.04 0.8981,0.01 1.34715,0.012 3.41225,-1.7421 0.65262,-0.017 1.9675,-1.3547 0.0949,-0.097 -0.1326,0.2361 -0.19373,0.3568 -0.49123,0.9704 -0.97263,1.9475 -1.3982,2.9487 -2.01755,4.2464 -4.04593,8.4876 -6.03426,12.7479 -2.41548,5.4747 -4.75784,11.0378 -5.26244,17.0742 -0.4443,6.4919 -6.9e-4,13.0463 2.3417,19.1819 1.40607,3.2399 3.05052,6.5136 5.87611,8.7596 0.85362,0.6919 1.67818,0.6063 2.73682,0.4038 0.7464,-0.098 -0.34477,0.01 -0.59654,0.5721 -0.52347,1.1777 -1.0818,2.4248 -1.07653,3.7136 0.005,1.1855 2.24498,2.5102 0.83393,1.5261 -5.41577,-3.0191 -11.5626,-4.4119 -17.35192,-6.5109 -11.88685,-3.8688 -23.70699,-7.93 -35.29215,-12.6407 -8.67732,-3.2688 -17.44857,-6.2697 -26.48486,-8.4 -1.69665,-0.4391 -3.3904,-0.8895 -5.08759,-1.3265 -0.89477,-0.2305 -1.8497,-0.2775 -2.69384,-0.6532 -0.0649,-0.029 0.10682,-0.094 0.16022,-0.1406 0.69124,-0.4788 1.38247,-0.9576 2.0737,-1.4363 0.18105,-0.8666 0.43473,-1.721 0.54316,-2.5996 0.0207,-0.1679 -0.30118,-0.5783 -0.16301,-0.4806 0.53698,0.3794 1.12815,3.0656 1.59031,3.5794 1.94071,4.5482 3.73132,9.1555 5.46133,13.7878 3.42916,8.3045 7.66031,16.2037 11.83367,24.153 4.20069,8.6751 7.96327,17.5304 11.35475,26.5541 1.73219,4.1665 3.30195,8.5328 5.95875,12.2168 0.74697,0.8007 1.45588,1.4744 2.40231,2.0379 0.20822,0.1239 2.08428,1.1113 2.08916,1.1242 0.72658,1.9151 0.86721,4.0037 1.30082,6.0056 -1.02253,0.6121 -1.98024,1.3485 -3.06758,1.8362 -0.23339,0.1047 -2.68978,0.056 -2.71636,0.055 -3.06298,-0.1372 -6.1223,-0.4463 -9.19443,-0.3659 -10.43204,-0.1192 -20.88156,-0.5174 -31.12804,-2.6795 -8.50412,-1.6272 -17.02215,-3.2951 -25.67559,-3.8968 -1.95925,-0.2055 -2.88765,-0.311 -4.74539,-0.4801 -0.33978,-0.031 -1.08357,0.2524 -1.02019,-0.083 0.0784,-0.4146 0.94133,-0.178 1.13988,-0.5503 2.07056,-3.8822 2.10637,-3.2282 0.84751,-5.3515 1.07228,1.0422 2.05647,2.1838 3.2764,3.0584 2.89127,1.9101 6.06006,3.3294 8.98725,5.1847 5.17478,3.4404 9.88506,7.5015 14.95023,11.0965 6.25082,4.4608 12.68993,8.6733 18.51406,13.7029 3.73917,3.09 7.51492,6.2738 11.96779,8.2931 0.73699,0.2939 1.46759,0.6118 2.25045,0.7667 0.0639,0.013 0.16478,-0.038 0.19428,0.02 3.69288,7.2639 5.65469,5.7496 2.67876,7.5379 -3.57184,2.0725 -7.1249,4.1845 -10.38972,6.7416 -9.06548,6.7817 -17.80678,13.9831 -26.60586,21.1041 -7.8088,6.3018 -15.50155,12.7334 -23.111,19.2735 -4.50684,3.4515 -9.22732,6.5237 -14.86511,7.7389 -0.40467,0.099 -0.79815,0.2718 -1.21401,0.2979 -0.0904,0.01 0.15976,-0.1415 0.14357,-0.2306 -0.42683,-2.3495 -0.85141,-4.7044 -1.45964,-7.0136 -0.0331,-0.1256 -0.51898,-0.014 -0.38939,-0.01 0.35554,0.021 0.71136,0.039 1.06744,0.046 0.67646,0.013 1.35315,0.01 2.02972,0.013 8.26518,-0.1557 16.53932,0.1616 24.79061,0.6203 7.95906,0.5965 15.87851,1.5484 23.82766,2.2522 6.48663,0.3116 12.97142,0.2014 19.46252,0.31 8.35078,0.151 16.69071,0.5613 25.03004,1.014 6.35456,0.3999 12.71226,0.823 19.03341,1.6049 1.85076,0.2199 5.6932,0.2642 7.13927,1.5462 0.66645,0.5908 1.0953,1.4047 1.64295,2.1071 0.0868,0.6722 0.26017,1.3388 0.26032,2.0166 3.8e-4,1.6358 -1.17385,3.0478 -1.65753,4.5448 -1.47134,3.9082 -2.87964,7.849 -3.55935,11.9904 -0.3847,2.5215 -0.59078,3.382 -0.67075,5.9801 -0.16269,5.2858 0.60297,10.5426 1.23883,15.7727 0.9444,7.5343 2.02268,15.1845 0.79583,22.7542 -0.69736,3.2216 -1.42173,6.4977 -3.12419,9.3652 -7.39941,-4.6672 -7.74889,-2.269 -5.03654,-5.986 1.3812,-1.8037 2.88676,-3.5016 4.46142,-5.1394 3.68682,-3.5883 7.8342,-6.6265 11.78578,-9.9081 7.95189,-6.6207 15.58161,-13.6126 23.40258,-20.3857 6.60109,-5.7932 13.14698,-11.6452 19.60053,-17.6024 2.66517,-2.2885 5.2831,-4.7152 8.32335,-6.5011 0.60051,-0.1936 1.1754,-0.5029 1.80153,-0.5807 3.60436,-0.4477 5.91424,2.1639 7.92274,4.7201 2.98331,4.32 5.71893,8.7963 7.29889,13.848 1.83348,5.6685 3.70678,11.3881 6.83001,16.5028 5.04542,7.6532 11.18023,14.4372 16.85579,21.6165 2.98706,4.0552 3.07363,4.1162 5.89836,8.1671 2.6872,3.8536 5.4531,7.7865 6.25249,12.5223 0.0548,0.9851 0.13914,5.3074 -0.40985,6.2312 -0.0609,0.1025 -0.10445,-0.2142 -0.15667,-0.3213 -1.11898,-0.7098 -2.23796,-1.4196 -3.35693,-2.1294 -0.57551,0.2606 -1.14845,0.5269 -1.72653,0.7817 -0.0481,0.021 0.1039,-0.038 0.13556,-0.08 0.19372,-0.2567 0.3509,-0.539 0.53238,-0.8044 0.89304,-1.3061 1.81455,-2.5958 2.50477,-4.0276 2.40615,-4.6622 4.15447,-9.6361 5.63721,-14.6612 2.10021,-8.0547 3.78933,-16.2055 5.68072,-24.3104 1.90687,-8.9193 3.61121,-17.8886 4.44271,-26.9822 0.68683,-5.5067 1.29189,-11.1403 3.51145,-16.2855 0.31098,-0.5361 0.53776,-1.1308 0.93293,-1.6082 2.80633,-3.3904 5.87793,-2.3601 8.43033,0.4229 3.07435,4.0114 5.60656,8.4021 8.39044,12.6125 4.89896,7.8981 9.64759,15.8957 14.87821,23.5824 5.51137,7.7925 11.35278,15.3277 17.69046,22.4714 1.3751,1.4774 1.91369,2.116 3.27839,3.4013 0.20306,0.1912 0.67577,0.2657 0.6376,0.542 -0.0326,0.2359 -0.4887,-0.063 -0.71428,0.013 -2.26547,0.7662 -1.79495,0.4873 -2.75621,2.0965 -0.0101,0.3759 -0.0196,0.3873 0.092,-0.3977 0.18318,-1.2879 0.31205,-2.5845 0.56199,-3.8624 0.7013,-3.7678 1.48027,-7.522 2.00123,-11.3213 0.89078,-6.3302 1.60763,-12.6792 1.97484,-19.064 0.39764,-6.6251 0.75462,-13.2591 0.72334,-19.8984 -0.10689,-4.9784 -0.40367,-9.958 -1.10679,-14.8914 -0.39912,-2.4748 -1.26593,-4.9146 -1.00802,-7.4466 0.30801,-0.693 0.42984,-1.5037 0.92403,-2.0789 2.07165,-2.4111 4.74696,-1.8946 7.21265,-0.7212 4.41823,2.1342 8.51759,4.8293 12.66658,7.4374 8.01125,5.2621 15.82258,10.8175 23.8263,16.0908 7.49016,4.8483 15.09363,9.5465 22.96583,13.7526 3.86712,1.9075 7.72959,3.8468 11.72257,5.4797 -0.18054,0.5673 0.2315,-0.6418 -1.21872,0.6117 -1.50421,1.3002 -0.67073,2.9786 -1.02666,0.6842 -0.52218,-3.7993 -1.47912,-7.536 -2.90017,-11.1022 -2.92857,-6.7188 -6.97158,-12.7826 -11.31914,-18.6701 -6.34021,-9.1329 -12.23751,-18.5511 -18.52514,-27.7174 -5.60594,-7.524 -11.86569,-14.4394 -18.69385,-20.881 -1.85922,-1.8618 -6.20298,-5.6797 -7.19952,-8.1386 -0.2334,-0.5759 -0.28184,-1.2104 -0.42276,-1.8156 0.0571,-0.5489 0.0519,-1.1079 0.17118,-1.6467 0.56792,-2.5656 2.74902,-4.5254 4.46075,-6.3472 4.67127,-3.9976 9.81866,-7.3984 14.88948,-10.8595 9.05989,-5.9858 18.33853,-11.6279 27.8429,-16.8832 9.33046,-5.0837 18.69646,-10.109 28.28825,-14.6868 5.27139,-2.5257 10.5865,-4.9678 16.03882,-7.0814 0.55911,-0.2179 1.12132,-0.428 1.67732,-0.6537 0.33546,-0.1361 0.86669,-0.7696 0.99662,-0.4317 0.17998,0.4681 -0.76661,0.8772 -0.6389,1.3621 0.99036,3.761 3.57877,3.5711 0.65232,3.1757 -10.02062,-0.7894 -20.21093,-0.3316 -30.24424,-1.1166 -16.00436,-0.5265 -32.04939,-0.8693 -48.01858,0.6201 -10.05161,1.0753 -20.19508,2.1948 -29.87176,5.2693 -1.41954,0.4767 -2.11932,0.6579 -3.41582,1.27 -0.92343,0.436 -1.7445,1.0885 -2.6679,1.515 -0.52865,0.2441 -1.08018,0.4354 -1.62027,0.6531 -1.37423,-1.1105 -3.01233,-1.957 -4.12269,-3.3313 -0.52993,-0.6559 2.12918,-5.3604 2.4031,-5.9893 3.23519,-7.3193 5.37112,-15.0605 7.87198,-22.6469 4.0543,-12.8417 8.21683,-25.6605 11.49936,-38.7283 2.63836,-10.5659 4.63512,-21.3257 8.11986,-31.6559 0.33031,-0.8741 0.64438,-1.7545 0.99095,-2.6223 0.20164,-0.5049 0.11843,-1.5927 0.65317,-1.4945 0.59394,0.109 0.0394,1.4328 0.57104,1.7192 1.29663,0.6983 2.89377,0.5576 4.32216,0.9163 0.0827,0.021 -0.15363,0.074 -0.23045,0.1111 -0.37154,0.3113 -0.74308,0.6226 -1.11462,0.9339 -6.96049,6.4692 -14.19048,12.642 -21.29738,18.9486 -12.25611,10.8851 -24.48861,21.7981 -36.89976,32.5066 -7.48367,6.3666 -14.92898,12.8293 -22.93585,18.5375 -3.31075,2.7302 -7.17188,-1.9519 -3.86113,-4.6821 z"
       id="path3943"
       style="fill:#000000;fill-opacity:1" />
  </g>
</svg>
